<svg width="36" height="36" viewBox="0 0 36 36" fill="none" xmlns="http://www.w3.org/2000/svg">
<circle cx="17.5292" cy="17.5292" r="17.5292" fill="#FFC145"/>
<mask id="mask0_414_2591" style="mask-type:alpha" maskUnits="userSpaceOnUse" x="0" y="0" width="36" height="36">
<circle cx="17.5292" cy="17.5292" r="17.5292" fill="#FFC145"/>
</mask>
<g mask="url(#mask0_414_2591)">
<mask id="mask1_414_2591" style="mask-type:alpha" maskUnits="userSpaceOnUse" x="0" y="0" width="36" height="36">
<circle cx="17.5292" cy="17.5292" r="17.5292" fill="#FFC145"/>
</mask>
<g mask="url(#mask1_414_2591)">
<path d="M28.3609 37.1468V33.566C28.3609 31.6666 27.7903 29.845 26.7745 28.5019C25.7587 27.1588 24.3811 26.4043 22.9445 26.4043H12.1117C10.6752 26.4043 9.29751 27.1588 8.28174 28.5019C7.26597 29.845 6.69531 31.6666 6.69531 33.566V37.1468" fill="#197BBD"/>
<path d="M17.5277 20.9871C20.5191 20.9871 22.9441 18.5621 22.9441 15.5707C22.9441 12.5793 20.5191 10.1543 17.5277 10.1543C14.5363 10.1543 12.1113 12.5793 12.1113 15.5707C12.1113 18.5621 14.5363 20.9871 17.5277 20.9871Z" fill="white"/>
</g>
</g>
</svg>
