<svg width="591" height="587" viewBox="0 0 591 587" fill="none" xmlns="http://www.w3.org/2000/svg">
<path d="M25.6876 512.589L0.0566406 545.116L43.2171 575.136C46.0697 571.137 29.8524 547.835 29.8524 547.835L47.1965 527.626L25.6876 512.589Z" fill="#455A64"/>
<path d="M17.9567 536.824C17.4492 536.652 16.8912 536.661 16.3906 536.851C15.89 537.04 15.4824 537.397 15.2467 537.851C15.0463 538.321 15.0453 538.845 15.2441 539.315C15.4429 539.786 15.8265 540.168 16.3165 540.384C16.8542 540.561 17.4431 540.545 17.9696 540.341C18.4962 540.137 18.9234 539.758 19.1691 539.277C19.3267 538.766 19.2661 538.218 19.0001 537.748C18.734 537.278 18.2833 536.923 17.7428 536.758" fill="white"/>
<path d="M0 545.196L2.72427 541.703L43.0463 572.044C43.0463 572.044 44.33 574.177 43.0463 575.283L0 545.196Z" fill="#263238"/>
<path d="M30.7951 548.129C30.6382 548.329 29.5114 547.689 27.9424 547.595C26.3735 547.502 25.1896 547.955 25.0898 547.742C24.9899 547.529 26.188 546.609 28.0423 546.742C29.8965 546.876 30.9092 547.982 30.7951 548.129Z" fill="#263238"/>
<path d="M33.8603 553.034C33.7462 553.261 32.5766 552.954 31.1931 553.288C29.8096 553.621 28.911 554.367 28.697 554.207C28.4831 554.047 29.2533 552.874 30.9791 552.461C32.705 552.048 34.0029 552.848 33.8603 553.034Z" fill="#263238"/>
<path d="M32.3929 559.886C32.1647 559.793 32.6639 558.553 34.0617 557.9C35.4595 557.247 36.786 557.46 36.7432 557.687C36.7004 557.913 35.6306 558.06 34.5038 558.66C33.3771 559.26 32.6211 560.006 32.3929 559.886Z" fill="#263238"/>
<path d="M34.1316 543.116C33.8891 543.236 33.1474 542.29 31.8922 541.543C30.6371 540.797 29.439 540.49 29.4533 540.21C29.4675 539.93 30.8796 539.877 32.3915 540.783C33.9034 541.69 34.3598 543.036 34.1316 543.116Z" fill="#263238"/>
<path d="M130.037 376.431C130.808 380.51 132.034 415.209 132.819 433.512C133.603 451.815 131.649 460.813 129.41 464.919C127.17 469.025 42.7181 527.186 36.2854 541.117L14.8906 525C14.8906 525 46.2697 472.357 59.6485 462.786C73.0274 453.215 98.7725 444.43 98.7725 444.43L91.4554 344.197L126.529 342.411L130.037 376.431Z" fill="#263238"/>
<path d="M51.5466 544.756L51.1758 585.108L104.962 585.801C104.72 581.002 77.0349 570.991 77.0349 570.991L78.4613 545.116L51.5466 544.756Z" fill="#455A64"/>
<path d="M60.434 568.658C59.915 568.798 59.4696 569.112 59.1827 569.54C58.8959 569.968 58.7879 570.48 58.8793 570.977C59.0117 571.468 59.3391 571.892 59.795 572.165C60.2509 572.437 60.8008 572.537 61.3326 572.444C61.8807 572.291 62.3495 571.956 62.6495 571.501C62.9494 571.046 63.0595 570.503 62.9586 569.977C62.7675 569.479 62.3763 569.069 61.8679 568.836C61.3595 568.602 60.7736 568.562 60.2343 568.724" fill="white"/>
<path d="M51.1621 585.254V580.922L102.866 583.428C102.866 583.428 105.234 584.455 104.934 586.028L51.1621 585.254Z" fill="#263238"/>
<path d="M77.8621 570.804C77.8621 571.057 76.5357 571.151 75.2377 571.924C73.9398 572.697 73.2266 573.71 72.9841 573.617C72.7416 573.523 73.1553 572.097 74.7528 571.191C76.3502 570.284 77.9762 570.577 77.8621 570.804Z" fill="#263238"/>
<path d="M83.5686 573.11C83.5686 573.35 82.4704 573.75 81.5718 574.776C80.6732 575.803 80.3879 576.909 80.1455 576.883C79.903 576.856 79.7318 575.483 80.8872 574.217C82.0425 572.95 83.5686 572.83 83.5686 573.11Z" fill="#263238"/>
<path d="M86.6354 579.416C86.393 579.416 86.0506 578.229 86.7353 576.896C87.4199 575.563 88.6751 575.043 88.7749 575.243C88.8748 575.443 88.1188 576.163 87.5625 577.269C87.0063 578.376 86.8922 579.389 86.6354 579.416Z" fill="#263238"/>
<path d="M77.5202 564.872C77.4061 565.098 76.208 564.739 74.6675 564.872C73.1271 565.005 72.0146 565.365 71.8149 565.152C71.6152 564.938 72.7991 564.085 74.5534 564.019C76.3078 563.952 77.6485 564.685 77.5202 564.872Z" fill="#263238"/>
<path d="M133.916 338.265C133.916 340.625 138.01 400.359 117.114 443.577C117.114 443.577 109.883 457.094 108.556 462.999C107.23 468.905 80.2012 566.858 80.2012 566.858L48.9648 565.792C48.9648 565.792 43.9727 516.722 48.9648 488.314C53.9569 459.907 63.228 463.239 63.228 444.896C63.228 426.554 58.5639 388.521 58.5639 388.521C58.5639 388.521 51.7461 378.137 49.4212 357.994C47.5242 341.638 55.7684 324.108 55.7684 324.108L63.9126 310.631L132.818 307.258L133.916 338.265Z" fill="#263238"/>
<path d="M133.917 338.265C133.917 338.265 133.917 337.572 133.917 336.225C133.917 334.879 133.831 332.879 133.774 330.253C133.646 324.988 133.432 317.229 133.175 307.205V307.058H133.004L64.0985 310.337H63.9558L63.8703 310.457C61.3457 314.643 58.5644 319.216 55.7117 323.935C53.5901 328.718 51.9336 333.67 50.7624 338.732C49.4684 344.06 48.8887 349.519 49.0365 354.982C49.4707 360.686 50.4251 366.345 51.8892 371.898C53.3016 377.728 55.5216 383.361 58.493 388.655V388.521C59.6769 398.466 60.7751 408.771 61.7023 419.382C62.1587 424.714 62.5581 430.046 62.8433 435.525C62.9859 438.191 63.1001 440.991 63.1143 443.75C63.1143 445.083 63.1143 446.509 63.0287 447.883C62.9272 449.259 62.7463 450.63 62.4867 451.988C61.9029 454.725 60.8684 457.36 59.4201 459.8C57.9938 462.293 56.5675 464.759 55.1412 467.359C52.558 472.634 50.6755 478.185 49.5358 483.888C47.054 495.353 46.5547 507.27 46.4121 519.281C46.4121 535.131 47.2108 550.701 48.6086 565.752V566.072H48.9367L80.1731 567.138H80.4726L80.5439 566.858C89.6011 534.051 98.0449 503.391 105.49 475.823L108.186 465.626C108.657 463.933 108.956 462.253 109.512 460.653C110.069 459.054 110.696 457.467 111.352 455.921C112.693 452.828 114.205 449.829 115.631 446.909L116.744 444.737C117.139 444.027 117.491 443.297 117.799 442.55C118.441 441.071 119.083 439.618 119.725 438.165C124.161 427.413 127.462 416.283 129.581 404.931C132.635 388.76 134.21 372.376 134.288 355.955C134.373 344.464 133.874 338.225 133.874 338.225C133.874 338.225 133.874 338.612 133.874 339.371C133.874 340.131 133.874 341.291 133.96 342.784C134.045 345.783 134.102 350.209 133.96 355.955C133.828 372.362 132.239 388.73 129.21 404.891C127.042 416.206 123.698 427.296 119.226 438.005L117.314 442.364C117.001 443.11 116.644 443.817 116.259 444.537C115.874 445.256 115.503 445.99 115.132 446.723C113.706 449.642 112.194 452.642 110.853 455.748C110.183 457.307 109.541 458.894 108.985 460.52C108.428 462.146 108.1 463.866 107.644 465.519C106.745 468.878 105.847 472.264 104.92 475.717C97.346 503.258 88.9164 533.918 79.8878 566.725L80.2587 566.471L49.0223 565.392L49.3931 565.712C47.9668 550.688 47.1395 535.131 47.1966 519.308C47.3392 507.31 47.8384 495.446 50.306 484.062C51.4423 478.412 53.3052 472.911 55.8543 467.678C57.138 465.106 58.707 462.666 60.1333 460.133C61.5719 457.627 62.5917 454.93 63.1571 452.135C63.4275 450.746 63.6133 449.344 63.7134 447.936C63.7134 446.603 63.856 445.136 63.7989 443.763C63.7989 440.991 63.6706 438.231 63.5279 435.498C63.2427 430.033 62.829 424.647 62.3584 419.342C61.4075 408.677 60.3282 398.382 59.1206 388.455V388.375C56.1482 383.149 53.9186 377.583 52.4882 371.818C51.0324 366.304 50.0781 360.686 49.6356 355.022C49.482 349.609 50.0473 344.2 51.3187 338.918C52.4679 333.907 54.0859 329.001 56.1539 324.255L64.2839 310.764L64.0557 310.897L132.961 307.418L132.776 307.271C133.118 317.283 133.375 325.041 133.546 330.307C133.646 332.973 133.717 334.919 133.774 336.279C133.831 337.638 133.917 338.265 133.917 338.265Z" fill="#455A64"/>
<path d="M111.51 215.943C111.51 215.943 92.9676 212.877 94.6935 235.18C95.7775 248.51 99.9709 271.385 102.296 285.982C103.095 291.035 104.863 300.073 112.009 305.378L163.214 338.492L179.374 320.429L133.646 279.73L126.515 239.472L111.51 215.943Z" fill="#455A64"/>
<path d="M113.691 135.56C116.63 137.772 118.956 140.613 120.47 143.843C121.985 147.074 122.644 150.597 122.392 154.116C122.107 157.529 121.094 161.408 123.476 164.007C125.858 166.607 130.422 166.514 132.676 169.153C135.314 172.272 133.103 176.911 134.102 180.791C134.611 182.603 135.793 184.186 137.436 185.258C139.08 186.331 141.078 186.821 143.073 186.643C138.392 190.223 132.747 192.529 126.756 193.308L122.078 187.856C123.818 189.775 123.347 192.828 121.679 194.788C119.866 196.612 117.528 197.908 114.946 198.52C108.802 200.287 102.304 200.705 95.9582 199.741C89.6126 198.776 83.5907 196.456 78.3613 192.961" fill="#263238"/>
<path d="M45.1861 165.647C46.099 162.981 47.6394 160.621 48.2527 157.942C49.5649 152.17 46.5554 145.665 49.5507 140.466C51.6901 136.773 56.2258 134.96 60.5333 133.72C64.8408 132.481 69.4335 131.441 72.6428 128.495C74.9819 126.335 76.3227 123.349 78.6618 121.19C81.9994 118.097 86.9345 117.044 91.6128 116.777C96.4436 116.341 101.313 117.08 105.748 118.923C107.95 119.862 109.885 121.272 111.396 123.039C112.907 124.806 113.953 126.88 114.448 129.095C114.819 131.254 114.534 133.534 115.275 135.627C116.074 137.919 118 139.706 119.198 141.852C120.398 144.157 120.745 146.769 120.185 149.278C119.625 151.787 118.189 154.052 116.103 155.716L83.0406 195.628C76.0945 198.08 59.2639 195.121 53.9009 190.295C48.538 185.47 42.8897 172.246 45.1861 165.647Z" fill="#263238"/>
<path d="M115.232 150.65C113.805 141.585 106.488 130.881 96.8607 132.534L67.1362 141.865C64.2835 142.372 66.3089 146.838 66.5942 149.597L73.0554 212.251C73.0554 212.251 69.0332 214.917 67.6068 214.41C67.5256 214.384 67.4376 214.382 67.355 214.404C67.2724 214.427 67.1993 214.473 67.1459 214.536C67.0925 214.599 67.0616 214.676 67.0573 214.756C67.053 214.836 67.0756 214.916 67.1219 214.984C70.7305 219.849 87.5468 241.005 104.962 234.513C108.842 233.06 104.549 221.636 104.962 217.41L104.449 206.599C104.064 201.08 103.878 198.814 103.878 198.867C103.878 198.92 116.173 196.041 117.499 180.671C118.17 173.059 116.744 160.715 115.232 150.65Z" fill="#FFBF9D"/>
<path d="M113.163 164.594C113.208 165.101 113.039 165.605 112.693 165.998C112.347 166.391 111.85 166.643 111.309 166.7C111.045 166.74 110.776 166.73 110.517 166.67C110.257 166.611 110.013 166.503 109.799 166.354C109.585 166.205 109.405 166.017 109.27 165.802C109.135 165.586 109.048 165.348 109.013 165.101C108.969 164.593 109.137 164.09 109.483 163.696C109.83 163.303 110.326 163.052 110.867 162.994C111.131 162.955 111.4 162.965 111.659 163.025C111.919 163.084 112.163 163.191 112.377 163.341C112.591 163.49 112.771 163.678 112.906 163.893C113.041 164.108 113.129 164.347 113.163 164.594Z" fill="#263238"/>
<path d="M92.9108 165.78C92.959 166.286 92.7934 166.79 92.4497 167.184C92.1059 167.577 91.611 167.829 91.0709 167.887C90.8075 167.924 90.5387 167.913 90.2801 167.852C90.0215 167.792 89.7783 167.685 89.5647 167.536C89.351 167.387 89.1711 167.2 89.0355 166.985C88.8998 166.771 88.8111 166.534 88.7745 166.287C88.7303 165.78 88.8991 165.276 89.2452 164.883C89.5913 164.49 90.0875 164.238 90.6287 164.181C90.8916 164.141 91.1602 164.152 91.4187 164.211C91.6771 164.271 91.9201 164.379 92.1331 164.528C92.3461 164.677 92.5247 164.865 92.6583 165.08C92.7919 165.295 92.8778 165.534 92.9108 165.78Z" fill="#263238"/>
<path d="M113.905 158.169C113.677 158.529 111.737 157.382 109.313 157.715C106.888 158.049 105.333 159.595 105.034 159.315C104.734 159.035 105.034 158.569 105.733 157.862C106.61 156.941 107.81 156.343 109.117 156.174C110.424 156.006 111.752 156.278 112.864 156.942C113.663 157.462 114.019 158.009 113.905 158.169Z" fill="#263238"/>
<path d="M92.1267 159.862C91.8414 160.195 89.9444 158.902 87.3342 159.008C84.7241 159.115 82.8699 160.488 82.5703 160.182C82.2708 159.875 82.6987 159.462 83.5117 158.848C84.5789 158.025 85.9083 157.556 87.2915 157.515C88.6679 157.465 90.0231 157.845 91.1425 158.595C91.9555 159.142 92.255 159.702 92.1267 159.862Z" fill="#263238"/>
<path d="M100.299 174.219C101.451 173.779 102.659 173.483 103.894 173.339C104.45 173.246 104.992 173.099 105.049 172.726C105.056 172.168 104.877 171.623 104.536 171.166C103.894 169.913 103.223 168.593 102.51 167.167C99.6575 161.528 97.5893 156.889 97.8318 156.782C98.0743 156.676 100.57 161.155 103.394 166.78C104.079 168.18 104.735 169.446 105.349 170.779C105.766 171.398 105.933 172.135 105.819 172.859C105.754 173.054 105.641 173.232 105.491 173.38C105.34 173.528 105.154 173.642 104.949 173.712C104.64 173.811 104.319 173.874 103.994 173.899C102.78 174.142 101.54 174.249 100.299 174.219Z" fill="#263238"/>
<path d="M103.879 198.894C96.241 199.549 88.5582 198.211 81.6855 195.028C81.6855 195.028 88.0327 205.292 104.164 202.706L103.879 198.894Z" fill="#FF9A6C"/>
<path d="M93.4674 180.324C93.7219 179.797 94.1143 179.339 94.6085 178.991C95.2133 178.722 95.9 178.661 96.5483 178.818C97.5116 178.949 98.4028 179.37 99.0871 180.017C99.423 180.344 99.6595 180.749 99.7723 181.189C99.8851 181.63 99.8702 182.09 99.729 182.524C99.4722 183.403 98.0744 183.857 97.1188 184.043C96.1288 184.178 95.1194 183.985 94.2662 183.497C93.895 183.339 93.571 183.098 93.3223 182.796C93.0737 182.494 92.908 182.14 92.8398 181.764C92.9031 181.239 93.1203 180.741 93.4674 180.324Z" fill="#FF9A6C"/>
<path d="M93.9234 177.378C94.2799 177.378 94.4796 179.604 96.6904 181.071C98.9012 182.537 101.469 182.097 101.511 182.404C101.554 182.71 100.984 182.884 99.8854 182.99C98.4603 183.112 97.0351 182.758 95.8632 181.99C94.7324 181.261 93.9537 180.146 93.6952 178.884C93.5525 177.965 93.7522 177.378 93.9234 177.378Z" fill="#263238"/>
<path d="M91.9274 151.663C91.7419 152.237 89.4884 152.13 86.8782 152.623C84.268 153.116 82.1999 153.956 81.8148 153.436C81.6436 153.21 81.9574 152.65 82.7704 152.037C83.8594 151.278 85.1202 150.764 86.4555 150.533C87.7909 150.301 89.1652 150.36 90.4725 150.703C91.4709 150.97 91.9987 151.383 91.9274 151.663Z" fill="#263238"/>
<path d="M112.522 150.53C112.108 151.037 110.311 150.677 108.243 150.81C106.175 150.943 104.349 151.41 103.893 150.943C103.693 150.717 103.893 150.21 104.677 149.704C105.708 149.068 106.908 148.713 108.143 148.677C109.37 148.595 110.597 148.84 111.68 149.384C112.422 149.784 112.707 150.264 112.522 150.53Z" fill="#263238"/>
<path d="M60.5619 144.052C61.9882 141.892 64.7553 140.786 67.3227 139.866C78.4106 135.864 89.9692 133.112 101.754 131.667C103.18 133.92 101.868 137 99.6573 138.639C97.4465 140.279 94.5939 140.932 91.9552 141.852C89.3165 142.772 86.5922 144.211 85.494 146.651C84.3957 149.09 85.3228 152.303 84.2959 154.943C82.5415 159.502 75.738 160.968 74.0406 165.514C72.7284 168.966 74.8679 172.632 75.467 176.258C75.7409 178.098 75.5917 179.972 75.0293 181.754C74.4669 183.536 73.5043 185.186 72.2057 186.592C70.9071 187.999 69.3023 189.131 67.4986 189.912C65.6949 190.693 63.7336 191.105 61.7458 191.122C60.947 178.067 60.1435 165.021 59.3353 151.983C59.0928 149.264 58.9787 146.331 60.5619 144.052Z" fill="#263238"/>
<path d="M32.4346 177.018C34.6454 175.165 37.4125 173.565 38.2825 170.926C39.5662 167.073 36.2571 162.554 38.3966 159.048C40.3364 155.849 46.0559 156.022 47.8674 152.756C49.2937 150.197 47.6534 147.944 48.1812 145.705C48.7089 143.465 52.1321 141.505 54.5568 141.772L73.5839 167.593C75.3525 176.258 77.1354 180.924 75.1529 185.936C73.8416 188.635 72.8515 191.46 72.2004 194.361C71.7725 197.294 72.5855 200.613 75.1386 202.36C63.728 203.199 53.0592 197.627 43.189 192.228L32.7912 186.523C31.6529 186.014 30.6715 185.243 29.9385 184.283C28.3839 181.91 30.2381 178.858 32.4346 177.018Z" fill="#263238"/>
<path d="M42.9473 189.602C43.3454 189.722 43.757 189.798 44.1739 189.829C45.3638 189.935 46.5643 189.854 47.7254 189.589C49.5789 189.174 51.2847 188.315 52.6748 187.096C54.5108 185.445 55.6627 183.239 55.9268 180.871C56.0982 179.497 55.9721 178.105 55.5559 176.778C55.0445 175.364 54.3347 174.019 53.445 172.779C52.5017 171.52 51.766 170.136 51.2627 168.673C50.9954 167.925 50.9117 167.131 51.0179 166.348C51.1241 165.566 51.4174 164.816 51.876 164.154C52.903 162.821 54.8285 162.541 56.6257 161.875C57.5963 161.549 58.4406 160.959 59.0504 160.182C59.6119 159.35 59.8858 158.377 59.8349 157.395C59.5882 155.513 59.1537 153.657 58.5369 151.85C58.318 150.973 58.318 150.061 58.5369 149.184C58.7881 148.3 59.37 147.529 60.1772 147.011C61.9128 146.076 63.8792 145.579 65.8825 145.571C67.9558 145.507 69.9778 144.952 71.7589 143.958C73.4921 142.971 74.899 141.554 75.8239 139.866C76.5831 138.244 77.0644 136.521 77.2502 134.76C77.4481 133.13 77.8208 131.522 78.3628 129.961C78.9635 128.542 79.8771 127.256 81.0443 126.189C83.197 124.279 85.9761 123.105 88.9318 122.856C91.3962 122.659 93.8696 123.121 96.0634 124.189C97.7134 124.978 99.2007 126.034 100.456 127.308C101.506 128.42 102.415 129.641 103.166 130.948C103.166 130.948 103.166 130.854 103.067 130.668C102.95 130.403 102.816 130.145 102.667 129.894C102.123 128.927 101.457 128.023 100.685 127.202C99.43 125.876 97.9327 124.77 96.2631 123.936C94.0463 122.797 91.5273 122.274 89.0031 122.429C85.9056 122.641 82.98 123.841 80.7162 125.829C79.4689 126.955 78.4959 128.319 77.8636 129.828C77.2981 131.417 76.9062 133.057 76.694 134.72C76.4961 136.424 76.0148 138.088 75.2677 139.652C74.3979 141.226 73.0864 142.548 71.4736 143.478C69.7742 144.41 67.8517 144.928 65.8825 144.985C63.7362 144.98 61.6281 145.514 59.7778 146.531C58.8522 147.12 58.1839 148 57.8951 149.01C57.6451 149.997 57.6451 151.024 57.8951 152.01C58.4991 153.783 58.9288 155.603 59.1788 157.449C59.2376 158.306 59.0082 159.159 58.5227 159.888C57.9717 160.565 57.224 161.078 56.3689 161.368C55.5274 161.701 54.6146 161.928 53.7302 162.274C52.8094 162.599 51.9973 163.147 51.3768 163.861C50.873 164.597 50.5503 165.428 50.4319 166.295C50.3135 167.162 50.4024 168.042 50.6922 168.873C51.2263 170.383 51.9952 171.811 52.9743 173.112C53.8431 174.291 54.5387 175.573 55.0425 176.925C55.4466 178.185 55.5823 179.508 55.4418 180.817C55.2081 183.097 54.1282 185.229 52.3895 186.843C51.0586 188.047 49.4178 188.91 47.6256 189.349C46.0994 189.721 44.5093 189.807 42.9473 189.602Z" fill="#455A64"/>
<path d="M27.7428 171.246C27.5563 171.508 27.43 171.803 27.372 172.112C27.1823 173.027 27.3547 173.974 27.857 174.779C28.205 175.353 28.6938 175.842 29.2833 176.205C30.0181 176.62 30.8637 176.833 31.7223 176.818C32.7657 176.797 33.7829 176.508 34.6631 175.984C35.5433 175.46 36.2528 174.72 36.7144 173.845C37.2569 172.841 37.5356 171.731 37.5274 170.606C37.4929 169.397 37.2222 168.205 36.7287 167.087C35.8301 164.781 34.1755 162.528 34.147 159.835C34.0931 159.172 34.1828 158.506 34.4107 157.876C34.6386 157.246 35.0001 156.665 35.4735 156.169C36.63 155.277 38.1159 154.846 39.6098 154.969C41.2723 155.083 42.9431 154.92 44.5449 154.489C45.3842 154.17 46.0934 153.61 46.5703 152.89C47.0294 152.174 47.3165 151.373 47.4118 150.544C47.494 148.952 47.3549 147.356 46.9982 145.798C46.7428 144.335 46.8353 142.838 47.2692 141.412C48.0776 138.691 49.9714 136.363 52.5608 134.907C55.0188 133.737 57.7474 133.151 60.5054 133.2C62.9565 133.206 65.3928 132.846 67.7226 132.134C69.6168 131.484 71.3529 130.487 72.8288 129.201C73.959 128.225 74.9212 127.092 75.6814 125.842C76.3505 124.805 76.8098 123.662 77.0364 122.469C76.6118 123.595 76.082 124.683 75.4532 125.722C73.6563 128.525 70.8884 130.67 67.6085 131.801C65.2982 132.461 62.8927 132.785 60.4769 132.761C57.6387 132.686 54.8251 133.272 52.2898 134.467C49.5668 135.959 47.5566 138.367 46.6701 141.199C46.2137 142.702 46.1115 144.28 46.3706 145.824C46.7044 147.332 46.8433 148.872 46.7842 150.41C46.7505 151.142 46.5025 151.85 46.0674 152.459C45.6323 153.068 45.0267 153.554 44.3167 153.863C42.7925 154.267 41.2038 154.416 39.6241 154.303C37.9698 154.168 36.325 154.646 35.0456 155.636C34.5232 156.192 34.1273 156.841 33.8821 157.545C33.6369 158.249 33.5474 158.991 33.6193 159.728C33.6823 161.112 34.0361 162.471 34.6605 163.727C35.2168 164.927 35.8301 166.047 36.3008 167.167C36.7794 168.228 37.05 169.362 37.0995 170.513C37.119 171.564 36.8748 172.605 36.3863 173.552C35.9725 174.369 35.3268 175.065 34.5196 175.563C33.7124 176.061 32.7745 176.343 31.8079 176.378C31.015 176.405 30.2298 176.225 29.54 175.858C28.9496 175.536 28.4582 175.077 28.1137 174.525C27.6137 173.783 27.4068 172.902 27.5289 172.032C27.6002 171.553 27.7856 171.259 27.7428 171.246Z" fill="#263238"/>
<path d="M147.88 177.605C148.219 178.506 148.219 179.489 147.88 180.391C147.692 180.908 147.381 181.38 146.971 181.77C146.561 182.16 146.063 182.458 145.512 182.644C144.779 182.846 143.999 182.853 143.261 182.665C142.523 182.477 141.855 182.1 141.333 181.577C140.734 180.962 140.386 180.169 140.349 179.338C140.322 178.431 140.472 177.528 140.791 176.672C141.39 174.872 142.631 172.912 142.446 170.553C142.356 169.356 142 168.191 141.401 167.13C140.801 166.07 139.972 165.138 138.966 164.394C137.912 163.606 136.706 163.013 135.414 162.648C134.094 162.306 132.733 162.122 131.363 162.101C130.036 162.091 128.713 161.961 127.412 161.715C126.198 161.481 125.112 160.853 124.346 159.942C123.667 159.007 123.287 157.911 123.248 156.782C123.184 155.682 123.28 154.579 123.533 153.503C124.159 151.473 124.504 149.376 124.56 147.264C124.445 145.389 123.735 143.588 122.52 142.092C121.493 140.904 120.235 139.909 118.812 139.159C117.772 138.584 116.776 137.943 115.831 137.24C115.056 136.619 114.425 135.857 113.977 135C113.977 135 113.977 135 113.977 135.187C114.033 135.367 114.109 135.541 114.205 135.707C114.561 136.355 115.044 136.934 115.631 137.413C116.556 138.165 117.543 138.847 118.584 139.452C119.944 140.209 121.144 141.194 122.121 142.359C123.251 143.793 123.897 145.511 123.975 147.291C123.89 149.355 123.531 151.402 122.905 153.383C122.629 154.51 122.519 155.667 122.577 156.822C122.63 158.066 123.055 159.272 123.804 160.302C124.654 161.33 125.867 162.043 127.227 162.314C128.565 162.571 129.926 162.71 131.292 162.728C132.612 162.744 133.925 162.914 135.2 163.234C136.41 163.586 137.542 164.142 138.538 164.874C139.475 165.565 140.249 166.429 140.812 167.414C141.374 168.398 141.712 169.48 141.804 170.593C142.004 172.739 140.863 174.592 140.235 176.525C139.905 177.452 139.76 178.428 139.807 179.404C139.869 180.336 140.278 181.218 140.963 181.897C141.548 182.471 142.295 182.879 143.117 183.074C143.94 183.27 144.804 183.245 145.612 183.004C146.203 182.79 146.733 182.453 147.163 182.018C147.593 181.584 147.911 181.064 148.094 180.497C148.353 179.803 148.392 179.053 148.208 178.338C148.146 178.077 148.035 177.829 147.88 177.605Z" fill="#263238"/>
<path d="M134.245 282.023V267.28C136.013 259.001 135.172 249.19 131.05 241.632C128.059 236.76 124.754 232.063 121.151 227.568L105.462 208.518C96.8181 214.397 83.2823 210.145 71.6721 206.199C71.6721 206.199 60.2615 212.131 54.87 217.703C49.2646 223.569 68.4343 296.953 68.4343 296.953C59.748 313.19 48.5372 327.614 46.8398 342.411L137.554 345.677L133.703 306.805L134.245 282.023Z" fill="#455A64"/>
<path d="M132.99 307.218C132.9 306.667 132.876 306.108 132.919 305.552C132.919 304.339 132.919 302.886 132.919 301.033C132.99 297.033 133.076 291.875 133.176 286.129C133.276 280.384 133.461 275.038 133.661 271.225C133.761 269.319 133.86 267.773 133.946 266.706C133.956 266.154 134.032 265.603 134.174 265.067C134.232 265.616 134.232 266.17 134.174 266.72C134.174 267.933 134.174 269.386 134.174 271.239C134.103 275.238 134.003 280.397 133.903 286.142C133.803 291.888 133.632 297.233 133.433 301.046C133.333 302.952 133.233 304.499 133.133 305.565C133.155 306.119 133.107 306.674 132.99 307.218Z" fill="#263238"/>
<path d="M174.424 320.629C174.424 320.629 183.267 321.082 188.687 324.281C194.107 327.481 202.95 332.466 206.587 338.638C208.256 341.478 203.507 342.078 201.153 340.438C198.8 338.798 195.22 335.679 193.437 335.306L191.654 334.919C193.282 338.362 195.095 341.726 197.088 344.997C198.928 347.663 200.526 352.089 194.991 352.289C194.991 352.289 191.269 356.821 187.503 353.462C187.503 353.462 184.565 357.581 179.83 351.876C179.83 351.876 177.063 355.142 175.922 353.888C174.781 352.635 171.001 350.663 169.903 346.583C168.255 341.835 166.35 337.168 164.197 332.6L174.424 320.629Z" fill="#FFBF9D"/>
<path d="M372.411 206.065C373.395 206.065 413.889 202.066 413.889 202.066C413.889 202.066 417.326 186.683 417.141 182.684C416.955 178.684 414.074 152.223 414.074 152.223L429.236 145.558C429.236 145.558 449.504 209.438 445.082 214.744C440.661 220.049 432.345 224.808 431.632 224.835C430.919 224.862 392.394 240.832 365.593 232.527C338.793 224.222 372.411 206.065 372.411 206.065Z" fill="#FFBF9D"/>
<path d="M336.926 240.552C342.888 246.084 353.157 250.683 370.302 246.684C404.191 238.765 429.594 232.02 439.692 226.955C449.79 221.889 445.854 199.254 446.71 198.227C449.263 195.134 446.453 188.496 442.816 187.456C432.446 184.523 414.403 185.683 413.491 186.563C408.17 191.788 413.02 198.134 413.02 198.134L368.333 203.613C362.839 203.372 357.334 203.698 351.916 204.586" fill="#455A64"/>
<path d="M351.915 204.586L352.985 204.372C353.698 204.253 354.753 204.079 356.151 203.919C360.195 203.443 364.274 203.283 368.346 203.439L413.019 197.841L412.805 198.307C411.337 196.289 410.616 193.878 410.751 191.442C410.872 190.182 411.312 188.966 412.034 187.896C412.397 187.358 412.807 186.85 413.261 186.376C413.44 186.253 413.637 186.154 413.846 186.083L414.359 185.963C414.702 185.883 415.03 185.856 415.358 185.79C420.892 185.193 426.475 185.086 432.031 185.47C434.948 185.636 437.848 186.01 440.703 186.589C441.417 186.736 442.13 186.936 442.871 187.109C443.632 187.336 444.329 187.719 444.911 188.229C446.045 189.236 446.91 190.478 447.436 191.855C448.001 193.234 448.202 194.72 448.02 196.188C447.89 196.951 447.583 197.679 447.122 198.32C446.993 198.454 447.008 198.814 446.993 199.16V200.227C447.093 203.093 447.236 206.012 447.15 208.945C447.173 213.108 446.445 217.245 444.997 221.182C444.253 223.155 442.975 224.914 441.288 226.288C440.415 226.926 439.456 227.455 438.436 227.861C437.494 228.328 436.496 228.688 435.583 229.114C431.675 230.674 427.752 231.953 423.887 233.113C420.022 234.273 416.228 235.393 412.477 236.419C397.557 240.418 383.95 243.658 372.625 246.311C369.92 246.979 367.177 247.509 364.41 247.897C361.929 248.22 359.424 248.345 356.921 248.27C352.9 248.19 348.934 247.384 345.24 245.897C342.923 244.942 340.762 243.685 338.821 242.165C338.138 241.648 337.499 241.082 336.91 240.472C336.91 240.472 337.566 241.058 338.921 242.058C340.887 243.524 343.056 244.734 345.368 245.657C349.04 247.074 352.964 247.829 356.936 247.884C359.412 247.939 361.888 247.796 364.338 247.457C367.087 247.052 369.81 246.509 372.497 245.831C383.907 243.165 397.4 239.885 412.277 235.806C416 234.78 419.794 233.686 423.687 232.487C427.581 231.287 431.447 230.021 435.312 228.488C436.253 228.074 437.237 227.714 438.165 227.248C439.117 226.856 440.013 226.354 440.832 225.755C442.424 224.462 443.629 222.803 444.326 220.942C445.732 217.057 446.431 212.979 446.394 208.878C446.48 205.959 446.394 203.066 446.238 200.187V199.094C446.238 198.907 446.238 198.72 446.238 198.52C446.226 198.414 446.226 198.307 446.238 198.2C446.27 198.118 446.308 198.038 446.352 197.96L446.423 197.854C446.824 197.307 447.087 196.683 447.193 196.028C447.36 194.672 447.169 193.299 446.637 192.028C446.158 190.755 445.367 189.605 444.326 188.669C443.821 188.226 443.217 187.894 442.558 187.696C441.844 187.523 441.131 187.336 440.432 187.176C437.614 186.605 434.753 186.235 431.875 186.07C426.376 185.677 420.85 185.775 415.372 186.363C415.044 186.363 414.716 186.443 414.402 186.523L413.946 186.616C413.846 186.652 413.751 186.697 413.66 186.749C413.231 187.187 412.844 187.66 412.505 188.162C411.826 189.143 411.415 190.265 411.307 191.428C411.183 193.72 411.854 195.987 413.218 197.894L413.504 198.307H413.004L368.303 203.639C364.255 203.447 360.196 203.554 356.165 203.959C354.739 204.093 353.698 204.239 352.985 204.332C352.272 204.426 351.915 204.586 351.915 204.586Z" fill="#263238"/>
<path d="M230.925 248.001L212.723 217.437L556.995 38.3464C560.961 36.283 565.642 35.7769 570.008 36.9392C574.373 38.1015 578.066 40.837 580.274 44.5441L581.835 47.1649C584.042 50.8719 584.584 55.2468 583.34 59.3271C582.097 63.4074 579.17 66.8588 575.203 68.9221L230.932 248.012L230.925 248.001Z" fill="#89C5CC"/>
<path d="M519.613 86.3598L477.459 15.5754C477.255 15.2328 477.125 14.8559 477.077 14.4664C477.029 14.0769 477.063 13.6823 477.178 13.3051C477.293 12.928 477.486 12.5757 477.747 12.2684C478.007 11.9611 478.33 11.7048 478.697 11.5141L498.039 1.45225C498.406 1.26154 498.809 1.14017 499.226 1.0951C499.642 1.05003 500.065 1.08212 500.468 1.18955C500.872 1.29698 501.249 1.47765 501.577 1.72122C501.906 1.9648 502.18 2.2665 502.385 2.60914L544.539 73.3935L519.613 86.3598Z" fill="#89C5CC"/>
<path d="M436.686 53.3988L467.409 104.987C468.65 107.072 471.464 107.821 473.694 106.661L490.544 97.8955C492.774 96.7354 493.576 94.1053 492.334 92.021L461.612 40.4325C460.37 38.3482 457.556 37.599 455.326 38.7591L438.477 47.5243C436.246 48.6844 435.445 51.3145 436.686 53.3988Z" fill="#89C5CC"/>
<path d="M463.812 50.386L482.832 82.3246L521.541 62.188L502.521 30.2494L463.812 50.386Z" fill="#89C5CC"/>
<path d="M551.957 41.0327C552.056 41.1926 484.492 76.5187 401.08 119.923C317.669 163.328 249.891 198.387 249.891 198.214C249.891 198.04 317.341 162.728 400.781 119.31C484.221 75.8922 551.857 40.8594 551.957 41.0327Z" fill="#263238"/>
<path d="M91.4986 307.045C116.887 349.703 170.417 367.032 211.067 345.903C251.717 324.774 264.126 273.052 238.738 230.447C213.349 187.843 159.834 170.459 119.169 191.588C78.5048 212.717 66.1244 264.44 91.4986 307.045ZM216.715 241.911C234.501 271.772 225.815 307.991 197.317 322.802C168.819 337.612 131.321 325.468 113.535 295.58C95.7491 265.693 104.435 229.501 132.919 214.677C161.403 199.853 198.929 212.051 216.715 241.911Z" fill="#89C5CC"/>
<path d="M270.675 186.921L289.46 218.464C291.958 222.658 297.62 224.166 302.108 221.831L303.629 221.04C308.116 218.706 309.729 213.413 307.232 209.219L288.447 177.676C285.949 173.482 280.286 171.974 275.799 174.309L274.278 175.1C269.79 177.434 268.177 182.727 270.675 186.921Z" fill="#89C5CC"/>
<path d="M306.751 168.153L325.536 199.696C328.034 203.89 333.697 205.398 338.184 203.063L339.705 202.272C344.193 199.938 345.806 194.645 343.308 190.451L324.523 158.908C322.025 154.714 316.362 153.206 311.875 155.541L310.354 156.332C305.867 158.666 304.253 163.959 306.751 168.153Z" fill="#89C5CC"/>
<path d="M288.045 177.191C288.231 177.098 292.581 184.257 297.787 193.188C302.993 202.12 307.058 209.398 306.873 209.491C306.687 209.585 302.337 202.44 297.131 193.495C291.925 184.55 287.86 177.191 288.045 177.191Z" fill="#263238"/>
<path d="M271.486 188.189C271.671 188.096 275.922 194.934 280.999 203.439C286.077 211.944 290.028 218.943 289.857 219.036C289.686 219.129 285.421 212.291 280.4 203.853C275.38 195.414 271.315 188.282 271.486 188.189Z" fill="#263238"/>
<path d="M324.345 158.622C324.53 158.529 328.966 165.647 334.258 174.525C339.55 183.403 343.686 190.695 343.5 190.789C343.315 190.882 338.893 183.75 333.602 174.872C328.31 165.994 324.174 158.715 324.345 158.622Z" fill="#263238"/>
<path d="M306.93 168.447C307.101 168.353 311.451 175.432 316.615 184.257C321.778 193.081 325.843 200.253 325.658 200.4C325.472 200.547 321.15 193.415 315.973 184.59C310.795 175.765 306.745 168.54 306.93 168.447Z" fill="#263238"/>
<path d="M410.381 120.363C412.042 120.546 413.716 120.144 415.078 119.237C416.439 118.329 417.391 116.981 417.746 115.454C418.102 113.926 417.838 112.33 417.003 110.976C416.169 109.621 414.826 108.605 413.234 108.126C414.263 107.141 414.934 105.879 415.153 104.518C415.372 103.157 415.127 101.766 414.454 100.543C413.78 99.319 412.712 98.3244 411.4 97.6995C410.088 97.0747 408.599 96.8514 407.144 97.0612C407.084 95.7076 406.65 94.3916 405.885 93.2411C405.12 92.0905 404.049 91.1445 402.777 90.495C401.505 89.8456 400.075 89.5148 398.626 89.5348C397.176 89.5548 395.757 89.9249 394.506 90.6091C392.875 89.3627 390.845 88.662 388.738 88.6185C386.632 88.575 384.57 89.1913 382.882 90.3692C381.463 90.1161 379.995 90.297 378.695 90.8852C377.395 91.4733 376.333 92.4374 375.665 93.6344C374.997 94.8314 374.76 96.1976 374.989 97.5304C375.218 98.8632 375.9 100.092 376.934 101.034" fill="#263238"/>
<path d="M381.441 96.5812H382.867C390.059 96.5869 396.984 99.1235 402.265 103.686C407.546 108.249 410.795 114.503 411.365 121.203C412.435 134.12 413.433 148.397 413.319 155.329C413.048 169.726 397.729 171.859 397.729 171.859L398.97 189.109L361.701 187.976L358.605 125.455C357.293 110.538 365.466 97.4077 381.441 96.5812Z" fill="#FFBF9D"/>
<path d="M397.859 171.859C390.729 171.841 383.754 169.912 377.762 166.3C377.762 166.3 382.697 177.165 398.015 175.912L397.859 171.859Z" fill="#FF9A6C"/>
<path d="M402.935 134.733C402.939 135.268 402.719 135.782 402.322 136.166C401.924 136.55 401.382 136.772 400.81 136.786C400.532 136.804 400.252 136.771 399.988 136.687C399.723 136.604 399.479 136.472 399.27 136.299C399.06 136.127 398.889 135.918 398.767 135.683C398.644 135.449 398.573 135.194 398.557 134.933C398.556 134.399 398.777 133.885 399.174 133.5C399.57 133.115 400.11 132.888 400.682 132.867C400.961 132.849 401.242 132.883 401.507 132.968C401.773 133.052 402.017 133.185 402.227 133.359C402.437 133.532 402.608 133.743 402.729 133.98C402.851 134.216 402.921 134.472 402.935 134.733Z" fill="#263238"/>
<path d="M408.041 128.255C407.77 128.521 406.102 127.375 403.762 127.375C401.423 127.375 399.669 128.468 399.412 128.201C399.155 127.935 399.569 127.602 400.325 127.082C401.348 126.425 402.564 126.08 403.805 126.095C405.032 126.09 406.227 126.455 407.214 127.135C407.927 127.655 408.17 128.148 408.041 128.255Z" fill="#263238"/>
<path d="M381.668 133.774C381.68 134.316 381.461 134.84 381.061 135.232C380.66 135.625 380.109 135.853 379.529 135.867C379.251 135.885 378.971 135.851 378.707 135.767C378.442 135.684 378.198 135.552 377.988 135.38C377.779 135.207 377.608 134.998 377.486 134.763C377.363 134.529 377.292 134.274 377.275 134.014C377.271 133.478 377.491 132.962 377.888 132.576C378.285 132.19 378.828 131.965 379.401 131.947C379.678 131.927 379.957 131.959 380.221 132.04C380.486 132.121 380.73 132.25 380.941 132.42C381.152 132.59 381.324 132.796 381.449 133.029C381.574 133.261 381.649 133.514 381.668 133.774Z" fill="#263238"/>
<path d="M384.85 128.601C384.579 128.868 382.91 127.722 380.571 127.722C378.232 127.722 376.477 128.815 376.221 128.548C375.964 128.281 376.378 127.948 377.134 127.428C378.157 126.771 379.373 126.427 380.614 126.442C381.84 126.437 383.036 126.802 384.023 127.482C384.736 128.001 384.978 128.481 384.85 128.601Z" fill="#263238"/>
<path d="M393.351 144.985C394.595 144.619 395.884 144.404 397.187 144.345C397.786 144.345 398.357 144.185 398.471 143.798C398.521 143.218 398.382 142.637 398.072 142.132L396.303 137.839C393.85 131.721 392.024 126.695 392.338 126.615C392.652 126.535 394.805 131.401 397.259 137.506C397.843 139.013 398.414 140.452 398.956 141.825C399.326 142.509 399.432 143.29 399.255 144.038C399.166 144.236 399.03 144.411 398.857 144.552C398.684 144.693 398.479 144.796 398.257 144.851C397.928 144.943 397.587 144.987 397.244 144.985C395.951 145.136 394.643 145.136 393.351 144.985Z" fill="#263238"/>
<path d="M386.917 120.123C386.603 120.683 384.592 120.123 382.096 119.99C379.6 119.857 377.517 120.296 377.289 119.71C377.189 119.43 377.632 118.937 378.53 118.483C379.689 117.948 380.976 117.7 382.267 117.764C383.547 117.806 384.792 118.165 385.876 118.803C386.689 119.323 387.06 119.87 386.917 120.123Z" fill="#263238"/>
<path d="M408.185 119.177C407.686 119.67 405.732 119.177 403.393 119.177C401.054 119.177 399.114 119.51 398.615 118.977C398.415 118.723 398.729 118.217 399.599 117.75C400.797 117.163 402.141 116.883 403.493 116.937C404.837 116.954 406.153 117.309 407.301 117.964C408.128 118.417 408.399 118.923 408.185 119.177Z" fill="#263238"/>
<path d="M409.911 114.671C409.911 114.671 405.888 105.673 401.253 103.566C395.647 101.007 393.223 106.752 387.874 105.339C382.525 103.926 377.177 101.487 371.699 105.339C365.709 109.552 368.504 112.525 368.105 118.897C366.536 144.705 361.458 151.983 360.075 139.826C359.918 138.493 355.967 137.426 355.397 131.827C354.655 124.536 354.384 115.671 356.153 110.498C357.579 106.139 360.303 103.127 365.081 99.8339C372.641 94.6083 382.996 94.5017 390.028 95.2082C397.059 95.9147 410.581 103.42 409.911 114.671Z" fill="#263238"/>
<path d="M361.044 139.426C361.028 138.899 360.898 138.381 360.662 137.903C360.425 137.424 360.088 136.996 359.669 136.643C359.25 136.29 358.759 136.021 358.226 135.851C357.692 135.68 357.127 135.613 356.565 135.653C353.713 135.907 350.503 137.413 350.675 142.945C350.974 152.756 361.458 150.45 361.472 150.157C361.486 149.864 361.215 143.532 361.044 139.426Z" fill="#FFBF9D"/>
<path d="M359.063 146.531C359.063 146.531 358.891 146.664 358.578 146.798C358.152 146.98 357.667 147.004 357.223 146.864C356.53 146.481 355.959 145.932 355.571 145.273C355.182 144.614 354.989 143.87 355.012 143.118C354.957 142.281 355.103 141.443 355.44 140.666C355.53 140.358 355.7 140.076 355.933 139.844C356.167 139.612 356.458 139.436 356.78 139.332C356.99 139.273 357.215 139.285 357.415 139.365C357.616 139.446 357.781 139.59 357.879 139.772C358.021 140.039 357.964 140.239 358.021 140.252C358.078 140.266 358.235 140.079 358.135 139.679C358.079 139.436 357.926 139.222 357.708 139.079C357.563 138.98 357.4 138.909 357.226 138.87C357.052 138.831 356.871 138.825 356.695 138.853C356.265 138.943 355.868 139.135 355.54 139.411C355.213 139.686 354.967 140.036 354.826 140.426C354.402 141.284 354.211 142.228 354.27 143.172C354.398 145.145 355.54 146.971 357.123 147.344C357.405 147.414 357.701 147.422 357.988 147.369C358.275 147.316 358.544 147.203 358.777 147.038C359.063 146.771 359.105 146.531 359.063 146.531Z" fill="#FF9A6C"/>
<path d="M361.316 120.416C362.6 121.395 364.124 122.059 365.752 122.349C366.569 122.469 367.405 122.308 368.105 121.896C368.805 121.485 369.322 120.85 369.56 120.11C369.688 119.43 369.56 118.63 369.988 118.11C370.416 117.59 371.628 117.684 372.498 117.777C375.55 118.084 379.13 114.938 379.915 112.165C380.311 112.696 380.91 113.067 381.588 113.201C382.266 113.334 382.974 113.221 383.566 112.885C384.537 112.331 385.396 111.622 386.105 110.792C386.519 110.263 387.063 109.835 387.691 109.545C388.319 109.255 389.013 109.111 389.714 109.125C390.452 109.364 391.218 109.52 391.996 109.592C393.422 109.485 394.05 107.979 394.264 106.699C394.478 105.419 394.649 103.94 395.818 103.247C397.019 102.807 398.346 102.774 399.57 103.153C400.839 103.34 402.422 103.06 402.807 101.9C402.86 101.59 402.845 101.274 402.764 100.969C402.683 100.665 402.538 100.378 402.337 100.127C401.488 98.9382 400.235 98.0517 398.78 97.6113C397.325 97.171 395.754 97.2026 394.321 97.701C393.816 96.0604 392.8 94.5974 391.403 93.4983C390.005 92.3992 388.289 91.7137 386.473 91.5293C384.657 91.3448 382.824 91.6698 381.206 92.4626C379.589 93.2555 378.26 94.4804 377.39 95.9814C376.279 95.0305 374.939 94.3448 373.483 93.9828C372.028 93.6207 370.5 93.593 369.03 93.902C367.56 94.211 366.193 94.8476 365.043 95.7575C363.893 96.6673 362.996 97.8235 362.428 99.1274C361.144 98.8073 359.788 98.8472 358.528 99.2421C357.268 99.637 356.16 100.37 355.342 101.349C354.524 102.327 354.032 103.51 353.928 104.748C353.824 105.986 354.111 107.226 354.755 108.312C353.777 108.763 352.939 109.439 352.317 110.276C351.696 111.113 351.313 112.084 351.203 113.098C351.203 115.124 353.271 117.097 355.368 116.617C354.933 117.416 354.842 118.339 355.113 119.199C355.384 120.058 355.997 120.788 356.825 121.238C357.654 121.689 358.636 121.825 359.569 121.62C360.502 121.416 361.316 120.885 361.843 120.136" fill="#263238"/>
<path d="M395.09 100.58C395.09 100.58 395.09 100.58 395.09 100.767C395.09 100.954 395.09 101.06 395.019 101.287C394.872 101.952 394.612 102.591 394.249 103.18C393.67 104.102 392.875 104.891 391.924 105.486C390.667 106.287 389.165 106.685 387.645 106.619L387.816 106.406C388.124 107.286 388.048 108.245 387.602 109.072C387.131 109.949 386.525 110.757 385.805 111.472C385.455 111.888 385.058 112.268 384.621 112.605C383.845 113.082 382.913 113.286 381.991 113.181C381.069 113.076 380.217 112.669 379.586 112.031L379.971 111.925C379.824 112.943 379.45 113.922 378.872 114.797C378.295 115.672 377.527 116.423 376.62 117.004C375.622 117.697 374.41 118.066 373.168 118.057C372.002 117.997 370.856 117.759 369.773 117.35L370.058 117.23C369.509 118.417 368.651 119.458 367.562 120.256C367.066 120.654 366.48 120.943 365.848 121.102C365.216 121.261 364.555 121.287 363.911 121.176C362.808 120.952 361.799 120.431 361.008 119.678C360.218 118.925 359.68 117.972 359.461 116.937L359.703 117.044C358.593 117.581 357.321 117.75 356.095 117.524C355.182 117.361 354.322 117 353.585 116.471C353.126 116.134 352.731 115.729 352.415 115.271C352.3 115.112 352.213 114.936 352.158 114.751C352.557 115.364 353.074 115.902 353.684 116.337C354.411 116.829 355.252 117.153 356.138 117.284C357.302 117.49 358.508 117.311 359.547 116.777L359.746 116.67V116.884C359.962 117.847 360.474 118.731 361.219 119.427C361.963 120.123 362.909 120.601 363.94 120.803C364.528 120.899 365.131 120.871 365.706 120.721C366.281 120.571 366.813 120.303 367.263 119.936C368.285 119.177 369.089 118.192 369.602 117.07L369.688 116.897H369.887C370.92 117.285 372.014 117.51 373.125 117.564C374.275 117.572 375.396 117.231 376.32 116.59C377.175 116.042 377.898 115.333 378.443 114.509C378.988 113.685 379.343 112.764 379.486 111.805V111.338L379.815 111.698C380.186 112.081 380.651 112.374 381.171 112.55C381.69 112.727 382.248 112.782 382.796 112.711C383.306 112.648 383.795 112.474 384.222 112.205C384.634 111.894 385.008 111.541 385.334 111.152C386.04 110.471 386.635 109.699 387.103 108.859C387.313 108.484 387.442 108.075 387.481 107.654C387.52 107.233 387.469 106.808 387.331 106.406L387.246 106.166H387.517C388.973 106.25 390.42 105.89 391.639 105.14C392.575 104.576 393.364 103.825 393.949 102.94C394.476 102.223 394.862 101.424 395.09 100.58Z" fill="#455A64"/>
<path d="M393.321 152.303C393.235 151.943 390.682 152.53 388.315 150.903C385.947 149.277 385.562 146.664 385.205 146.731C384.849 146.798 384.849 147.424 385.105 148.504C385.457 149.913 386.331 151.16 387.573 152.023C388.759 152.849 390.242 153.213 391.709 153.036C392.808 152.876 393.378 152.463 393.321 152.303Z" fill="#263238"/>
<path d="M472.426 525.28L482.552 557.527C482.552 557.527 521.063 558.726 523.531 564.525L457.264 585.108L439.264 535.451L472.426 525.28Z" fill="#455A64"/>
<path d="M461.129 561.219C460.558 561.599 460.156 562.163 460 562.802C459.845 563.442 459.947 564.112 460.288 564.685C460.671 565.233 461.265 565.623 461.947 565.775C462.629 565.926 463.347 565.827 463.953 565.498C464.56 565.094 464.984 564.495 465.145 563.815C465.306 563.136 465.191 562.424 464.823 561.819C464.359 561.285 463.691 560.939 462.96 560.855C462.229 560.77 461.491 560.954 460.901 561.366" fill="#E0E0E0"/>
<path d="M519.793 562.192C519.793 562.192 523.174 562.472 523.53 564.525L457.263 585.108L455.666 580.029L519.736 562.166" fill="#263238"/>
<path d="M483.509 556.873C483.609 557.18 482.083 557.82 480.799 559.286C479.515 560.753 479.159 562.286 478.816 562.259C478.474 562.232 478.346 560.339 479.886 558.593C481.426 556.847 483.48 556.58 483.509 556.873Z" fill="white"/>
<path d="M491.411 557.393C491.596 557.673 490.384 558.62 489.728 560.233C489.072 561.846 489.257 563.312 488.929 563.392C488.601 563.472 487.788 561.832 488.629 559.833C489.471 557.833 491.311 557.113 491.411 557.393Z" fill="white"/>
<path d="M498.129 563.939C497.858 564.099 496.874 562.726 497.116 560.819C497.359 558.913 498.628 557.767 498.856 557.98C499.085 558.193 498.457 559.313 498.286 560.939C498.115 562.566 498.443 563.779 498.129 563.939Z" fill="white"/>
<path d="M480.327 549.768C480.327 550.088 478.658 550.128 476.875 550.808C475.092 551.488 473.851 552.474 473.595 552.274C473.338 552.074 474.322 550.568 476.447 549.782C478.572 548.995 480.412 549.475 480.327 549.768Z" fill="white"/>
<path d="M317.899 525.56L303.479 556.354C303.479 556.354 332.134 580.349 330.065 586.321L265.168 562.326L285.522 513.482L317.899 525.56Z" fill="#455A64"/>
<path d="M284.522 546.316C283.824 546.264 283.13 546.454 282.573 546.85C282.015 547.246 281.633 547.82 281.498 548.462C281.419 549.113 281.607 549.767 282.026 550.292C282.445 550.817 283.062 551.173 283.752 551.288C284.493 551.339 285.228 551.134 285.817 550.711C286.407 550.288 286.809 549.677 286.947 548.995C286.947 547.662 285.649 546.142 284.251 546.329" fill="#E0E0E0"/>
<path d="M328.796 582.295C328.796 582.295 331.192 584.548 330.065 586.294L265.168 562.299L267.436 557.46L328.768 582.255" fill="#263238"/>
<path d="M304.648 556.434C304.52 556.727 302.879 556.274 300.911 556.647C298.943 557.02 297.588 557.98 297.345 557.74C297.103 557.5 298.301 555.98 300.683 555.567C303.065 555.154 304.848 556.18 304.648 556.434Z" fill="white"/>
<path d="M310.352 561.579C310.352 561.886 308.726 561.886 307.114 562.739C305.503 563.592 304.647 564.805 304.262 564.685C303.877 564.565 304.461 562.806 306.473 561.779C308.484 560.753 310.466 561.299 310.352 561.579Z" fill="white"/>
<path d="M311.009 570.617C310.695 570.617 310.881 568.938 312.435 567.618C313.99 566.298 315.687 566.192 315.716 566.485C315.745 566.778 314.461 567.311 313.248 568.418C312.036 569.524 311.337 570.711 311.009 570.617Z" fill="white"/>
<path d="M307.114 549.115C306.872 549.328 305.588 548.395 303.748 547.782C301.908 547.169 300.297 547.249 300.24 546.942C300.183 546.636 301.965 546.062 304.119 546.729C306.273 547.395 307.371 548.902 307.114 549.115Z" fill="white"/>
<path d="M342.188 356.395L319.453 442.59C319.453 442.59 278.446 507.11 271.5 539.397L309.012 553.181C309.012 553.181 336.298 490.994 344.299 479.583C347.899 474.469 352.037 469.704 356.651 465.359C359.651 462.578 361.803 459.099 362.884 455.281L380.1 393.787L342.188 356.395Z" fill="#263238"/>
<path d="M332.504 342.611C332.504 342.611 335.67 365.699 359.447 375.937L409.539 452.188C409.539 452.188 413.462 476.983 420.95 497.872C428.438 518.761 443.571 559.02 443.571 559.02L484.778 544.623L458.519 460.72L454.24 431.619L413.362 334.306L378.246 314.63L332.504 342.611Z" fill="#263238"/>
<path d="M332.504 342.611L333.26 342.131L335.528 340.718L344.428 335.226L378.175 314.497L378.289 314.43L378.403 314.497L413.547 334.133V334.213L454.511 431.433V431.499C455.866 440.697 457.364 450.549 458.79 460.6C465.922 483.262 473.481 507.51 481.298 532.492C482.562 536.518 483.817 540.517 485.063 544.489L485.163 544.796L484.835 544.903L443.628 559.3L443.272 559.42L443.158 559.086C436.026 539.744 429.123 521.121 422.605 503.458C420.964 499.045 419.352 494.673 418.012 490.301C416.671 485.928 415.459 481.582 414.36 477.29C412.192 468.705 410.452 460.32 409.083 452.188V452.295L359.276 376.017L359.361 376.084C353.337 373.451 347.987 369.642 343.672 364.913C340.509 361.441 337.913 357.551 335.97 353.369C334.767 350.787 333.813 348.11 333.117 345.37C332.875 344.464 332.732 343.757 332.647 343.277C332.561 342.797 332.547 342.557 332.547 342.557C332.547 342.557 332.547 342.797 332.704 343.264C332.861 343.731 332.946 344.437 333.217 345.357C333.953 348.061 334.936 350.701 336.155 353.249C338.123 357.388 340.728 361.237 343.886 364.673C348.217 369.353 353.566 373.116 359.575 375.711L409.768 451.908V451.975C411.194 460.08 412.906 468.452 415.074 477.023C416.172 481.302 417.37 485.635 418.725 489.994C420.08 494.353 421.677 498.699 423.318 503.111C429.864 520.774 436.754 539.397 443.914 558.726L443.443 558.526L484.649 544.129L484.421 544.543C483.185 540.57 481.93 536.571 480.656 532.545L458.177 460.64C456.751 450.589 455.239 440.737 453.898 431.539V431.619L413.091 334.306L413.205 334.426L378.118 314.71H378.332L344.585 335.346L335.599 340.758L333.288 342.158L332.504 342.611Z" fill="#455A64"/>
<path d="M354.568 177.885C354.568 177.885 342.559 186.523 336.725 196.174C329.736 207.732 328.98 224.862 328.766 251.469C328.552 276.078 332.489 282.916 330.977 292.194C327.996 310.311 325.785 371.112 325.785 371.112C325.785 371.112 364.296 357.288 371.77 351.116L379.286 345.01L427.482 359.901L417.754 304.552L411.079 235.566L402.521 198.974L401.095 184.617L359.703 169.073L354.568 177.885Z" fill="#455A64"/>
<path d="M399.541 183.857C400.04 183.95 398.357 187.109 395.39 191.748L395.262 191.935L395.034 191.855C390.854 190.335 385.32 188.429 379.273 186.363C372.455 184.043 366.293 181.884 361.886 180.204C359.675 179.364 357.906 178.658 356.694 178.138C356.05 177.905 355.43 177.62 354.84 177.285C355.517 177.426 356.176 177.631 356.808 177.898L362.071 179.751L379.529 185.71C385.577 187.776 391.097 189.709 395.219 191.362L394.877 191.468C397.986 186.923 399.826 183.923 399.541 183.857Z" fill="#263238"/>
<path d="M449.347 155.116C449.347 155.116 446.295 150.677 443.414 146.584C440.533 142.492 436.168 140.479 435.469 138.346C434.77 136.213 430.933 126.708 430.32 124.349C429.787 122.064 429.538 119.729 429.578 117.39C429.578 117.39 432.731 116.137 434.242 120.35C435.155 122.883 438.065 131.481 438.693 131.907C439.32 132.334 440.119 131.707 440.119 131.707C438.823 128.488 437.705 125.209 436.767 121.883C436.624 120.323 437.209 109.979 437.209 109.979C437.991 109.831 438.804 109.95 439.5 110.315C440.196 110.679 440.729 111.265 441.003 111.965C442.501 114.631 442.558 121.296 442.558 121.296L444.826 128.735L444.027 121.376L445.168 107.846C446.276 107.993 447.309 108.456 448.126 109.172C448.942 109.887 449.503 110.821 449.732 111.845C450.688 115.497 449.419 120.59 450.06 121.669C450.702 122.749 451.401 129.281 451.401 129.281C451.401 129.281 452.186 113.418 453.997 112.965C455.808 112.511 457.292 114.191 457.035 117.39C456.778 120.59 456.707 127.362 457.648 130.348C458.59 133.334 468.246 145.011 467.461 150.13C466.981 153.223 466.681 156.338 466.563 159.462H450.018L449.347 155.116Z" fill="#FFBF9D"/>
<path d="M391.311 195.068C392.238 195.401 431.761 204.546 431.761 204.546C431.761 204.546 440.59 191.215 441.888 187.349C443.186 183.483 450.132 157.729 450.132 157.729L466.834 156.262C466.834 156.262 462.556 222.769 456.508 226.355C450.46 229.941 440.818 231.754 440.191 231.554C439.563 231.354 397.473 234.086 375.293 217.756C353.114 201.426 391.311 195.068 391.311 195.068Z" fill="#FFBF9D"/>
<g opacity="0.3">
<path d="M362.984 230.274C367.226 234.761 372.886 237.871 379.145 239.152C389.628 241.312 411.95 245.137 411.95 245.137L410.866 234.9L362.371 230.047" fill="black"/>
</g>
<path d="M345.383 216.197C348.977 223.289 356.965 230.86 374.523 232.58C409.282 235.939 435.598 237.726 446.965 236.126C458.333 234.526 462.854 212.038 464.081 211.344C467.618 209.265 467.39 202.12 464.338 199.987C455.666 193.921 438.279 189.322 437.109 189.815C430.192 193.028 432.445 200.547 432.445 200.547L388.372 191.455C383.295 189.482 378 188.042 372.583 187.163" fill="#455A64"/>
<path d="M372.582 187.163C372.582 187.163 372.953 187.163 373.667 187.296C374.38 187.429 375.449 187.589 376.819 187.869C380.794 188.712 384.687 189.862 388.457 191.309L432.502 200.267L432.131 200.64C431.479 198.277 431.68 195.78 432.702 193.535C433.265 192.385 434.117 191.379 435.184 190.602C435.725 190.208 436.302 189.86 436.909 189.562C437.118 189.504 437.334 189.473 437.551 189.469H438.079C438.436 189.469 438.749 189.576 439.092 189.629C444.512 190.827 449.798 192.501 454.881 194.628C457.56 195.718 460.149 196.993 462.626 198.44C463.239 198.814 463.853 199.227 464.466 199.627C465.1 200.077 465.617 200.656 465.978 201.32C466.673 202.629 467.035 204.071 467.033 205.532C467.07 207.011 466.717 208.476 466.006 209.798C465.612 210.48 465.056 211.068 464.38 211.518C464.209 211.598 464.095 211.944 463.952 212.264L463.582 213.264C462.64 215.93 461.699 218.783 460.558 221.529C459.063 225.467 456.875 229.144 454.082 232.407C453.07 233.647 451.779 234.664 450.301 235.388C448.822 236.111 447.192 236.522 445.524 236.593C444.455 236.739 443.385 236.766 442.329 236.846C438.051 237.086 433.943 237.032 429.878 236.926C425.813 236.819 421.833 236.619 417.968 236.393C402.464 235.459 388.557 234.14 376.89 233.007C374.103 232.779 371.331 232.405 368.589 231.887C366.155 231.4 363.769 230.722 361.457 229.861C357.711 228.501 354.278 226.482 351.345 223.915C349.513 222.277 347.938 220.406 346.666 218.356C346.211 217.653 345.815 216.918 345.482 216.157C345.482 216.157 345.882 216.917 346.795 218.29C348.113 220.288 349.71 222.112 351.544 223.715C354.475 226.227 357.893 228.191 361.614 229.501C363.93 230.336 366.315 230.991 368.746 231.46C371.481 231.95 374.242 232.302 377.018 232.513C388.686 233.593 402.592 234.86 418.068 235.766C421.947 235.979 425.913 236.166 429.963 236.259C434.014 236.353 438.165 236.406 442.358 236.179C443.399 236.086 444.469 236.059 445.51 235.913C446.55 235.861 447.576 235.678 448.562 235.366C450.533 234.656 452.273 233.48 453.612 231.954C456.344 228.753 458.484 225.149 459.945 221.289C461.086 218.623 462.013 215.81 462.954 213.064L463.353 212.024C463.353 211.864 463.496 211.691 463.582 211.504C463.634 211.401 463.696 211.303 463.767 211.211C463.822 211.147 463.884 211.089 463.952 211.038L464.052 210.958C464.644 210.575 465.133 210.068 465.479 209.478C466.145 208.24 466.469 206.865 466.42 205.479C466.424 204.13 466.097 202.799 465.464 201.586C465.153 201.014 464.71 200.513 464.166 200.12C463.553 199.733 462.968 199.32 462.355 198.96C459.913 197.523 457.357 196.262 454.71 195.188C449.683 193.07 444.454 191.401 439.092 190.202C438.764 190.202 438.436 190.069 438.122 190.042H437.651H437.337C436.776 190.323 436.241 190.648 435.74 191.015C434.746 191.716 433.949 192.63 433.415 193.681C432.47 195.79 432.275 198.127 432.859 200.347L432.987 200.813L432.488 200.707L388.514 191.508C384.778 190.039 380.925 188.845 376.99 187.936C375.563 187.629 374.579 187.416 373.866 187.283C373.153 187.149 372.582 187.163 372.582 187.163Z" fill="#263238"/>
<path d="M446.966 213.411C445.953 213.176 444.989 212.784 444.114 212.251C441.927 211.111 439.912 209.703 438.123 208.065C436.325 206.433 434.753 204.597 433.445 202.6C432.85 201.781 432.393 200.882 432.09 199.933C434.045 202.626 436.235 205.163 438.637 207.519C441.219 209.711 444.007 211.683 446.966 213.411Z" fill="#263238"/>
<path d="M136.656 323.201C136.656 323.201 145.5 323.641 150.92 326.854C156.34 330.067 165.183 335.026 168.82 341.211C170.489 344.051 165.739 344.65 163.4 342.997C161.061 341.344 157.452 338.252 155.669 337.865L153.886 337.492C155.512 340.932 157.326 344.291 159.321 347.556C161.161 350.223 162.758 354.648 157.238 354.862C157.238 354.862 153.501 359.394 149.736 356.035C149.736 356.035 146.798 360.141 142.062 354.448C142.062 354.448 139.309 357.701 138.154 356.461C136.999 355.222 133.233 353.235 132.135 349.156C130.496 344.405 128.592 339.737 126.43 335.172L136.656 323.201Z" fill="#FFBF9D"/>
<path d="M61.4036 214.517C56.8707 215.881 52.9583 218.627 50.2926 222.315C46.8979 227.194 45.8567 235.646 46.8266 241.938C48.8805 255.202 55.3845 277.584 59.0502 291.955C60.3053 296.913 62.887 305.792 70.4607 310.497L124.504 340.785L138.953 320.789L89.6875 283.263L79.9458 231.834L61.4036 214.517Z" fill="#455A64"/>
<path d="M52.0605 265.067C52.1346 265.235 52.1919 265.409 52.2317 265.587L52.6881 267.146C53.0732 268.559 53.6152 270.586 54.3284 273.185C55.7547 278.517 57.7801 286.089 60.3047 295.514C61.7704 300.647 64.875 305.242 69.2049 308.684C71.6783 310.535 74.3226 312.177 77.1067 313.59L85.793 318.496L124.717 340.465L124.218 340.571L129.424 333.359L138.667 320.522L138.738 320.989L89.915 283.41H89.8295V283.316C86.606 270.639 84.2668 260.254 82.7835 253.029C82.056 249.417 81.5426 246.604 81.2145 244.684C81.0719 243.751 80.9578 243.018 80.8722 242.498C80.7866 241.978 80.7723 241.751 80.7723 241.751C80.8498 241.992 80.9117 242.237 80.9578 242.485C81.0576 243.005 81.2002 243.724 81.3714 244.658C81.7565 246.564 82.3128 249.377 83.1115 252.976C84.6662 260.174 87.0909 270.532 90.3857 283.196L90.2859 283.05L139.194 320.455L139.451 320.655L139.266 320.909L130.023 333.746L124.817 340.958L124.632 341.224L124.318 341.064L85.4507 319.029L76.7786 314.11C73.9761 312.682 71.313 311.027 68.8198 309.164C64.415 305.638 61.2736 300.934 59.8197 295.687C57.3807 286.236 55.4267 278.597 54.1144 273.305C53.4726 270.639 52.9591 268.653 52.6025 267.24L52.1889 265.6C52.1328 265.425 52.0899 265.247 52.0605 265.067Z" fill="#263238"/>
<path d="M52.9453 221.622C53.2808 221.416 53.6526 221.267 54.0436 221.182C55.0789 220.883 56.1376 220.661 57.21 220.516C60.7875 220 64.4483 220.463 67.7505 221.849C70.9421 223.404 73.6531 225.699 75.6238 228.514C76.2213 229.365 76.7006 230.283 77.0501 231.247C77.2032 231.59 77.2902 231.955 77.3068 232.327C76.6904 231.103 75.9802 229.922 75.1816 228.794C73.1514 226.167 70.4949 224.017 67.4225 222.515C64.2358 221.195 60.7314 220.689 57.2671 221.049C54.5998 221.249 52.9881 221.742 52.9453 221.622Z" fill="#263238"/>
</svg>
