<svg width="598" height="605" viewBox="0 0 598 605" fill="none" xmlns="http://www.w3.org/2000/svg">
<path d="M509.538 314.985C626.645 381.343 627.27 488.917 510.898 555.262C394.526 621.607 205.337 621.552 88.2307 555.262C-28.8756 488.971 -29.4875 381.343 86.8708 314.998C203.229 248.654 392.446 248.64 509.538 314.985Z" fill="#6E6E6E"/>
<path d="M396.375 15.393L402.372 11.9119L402.018 135.831L396.035 139.325L396.375 15.393Z" fill="#F0F0F0"/>
<path d="M396.035 139.325L402.018 135.831L574.904 235.64L568.907 239.121L396.035 139.325Z" fill="#F5F5F5"/>
<path d="M389.508 3.49463L576.168 111.259L575.773 251.033L389.113 143.255L389.508 3.49463ZM568.906 239.121L569.26 115.202L396.375 15.3929L396.035 139.312L568.906 239.121Z" fill="#BCBCBC"/>
<path d="M389.506 3.49469L395.503 0L582.163 107.778L576.166 111.259L389.506 3.49469Z" fill="#F5F5F5"/>
<path d="M576.168 111.259L582.165 107.778L581.77 247.552L575.773 251.033L576.168 111.259Z" fill="#F0F0F0"/>
<path d="M479.363 63.3125L479.01 187.231L485.904 191.216L486.258 67.2831L479.363 63.3125Z" fill="#BCBCBC"/>
<path d="M486.258 67.283L485.904 191.215L491.901 187.734L492.241 70.7369L486.258 67.283Z" fill="#F0F0F0"/>
<path opacity="0.2" d="M486.257 72.8583L486.271 67.2831L479.377 63.3125L479.35 68.8741L486.257 72.8583Z" fill="black"/>
<path opacity="0.2" d="M486.244 72.8581L491.085 70.0706L486.258 67.283L486.244 72.8581Z" fill="black"/>
<path d="M106.277 393.105C102.429 395.335 102.402 398.939 106.277 401.155L120.052 409.165C122.207 410.261 124.59 410.832 127.007 410.832C129.425 410.832 131.808 410.261 133.963 409.165L300.036 312.687C303.884 310.47 303.925 306.853 300.036 304.623L286.247 296.614C284.092 295.517 281.709 294.946 279.292 294.946C276.874 294.946 274.491 295.517 272.336 296.614L106.277 393.105Z" fill="#958080"/>
<path d="M129.583 492.371L252.332 563.693C254.044 564.687 255.989 565.211 257.969 565.211C259.949 565.211 261.893 564.687 263.605 563.693L486.545 435.028C486.971 434.78 487.325 434.425 487.571 433.998C487.817 433.571 487.946 433.087 487.946 432.594C487.946 432.101 487.817 431.617 487.571 431.19C487.325 430.763 486.971 430.407 486.545 430.16L365.522 359.831C363.818 358.851 361.886 358.336 359.92 358.336C357.954 358.336 356.022 358.851 354.318 359.831L129.61 487.516C129.186 487.762 128.833 488.115 128.587 488.54C128.341 488.964 128.21 489.445 128.207 489.936C128.204 490.426 128.33 490.909 128.571 491.336C128.813 491.763 129.161 492.12 129.583 492.371Z" fill="#958080"/>
<path d="M77.0371 67.3375L77.1323 97.2667L80.7494 99.3744L80.6542 65.257L77.0371 67.3375Z" fill="#F0F0F0"/>
<path d="M37.9727 119.88L37.9863 124.068L80.7521 99.3744L77.135 97.2667L37.9727 119.88Z" fill="#F5F5F5"/>
<path d="M85.0209 57.6965L33.4844 87.449L33.6068 131.643L85.1569 101.89L85.0209 57.6965ZM37.9717 124.068V119.88L37.8765 89.9647L77.0389 67.3511L80.6559 65.2706L80.7511 99.3881L37.9717 124.068Z" fill="#BCBCBC"/>
<path d="M85.0207 57.6964L81.4036 55.5887L29.8535 85.3412L33.4842 87.4489L85.0207 57.6964Z" fill="#F5F5F5"/>
<path d="M29.8535 85.3412L29.9759 129.535L33.6066 131.642L33.4842 87.4489L29.8535 85.3412Z" fill="#F0F0F0"/>
<path d="M77.0371 129.712L77.1323 159.641L80.7494 161.748L80.6542 127.617L77.0371 129.712Z" fill="#F0F0F0"/>
<path d="M37.9727 182.254L37.9863 186.443L80.7521 161.749L77.135 159.641L37.9727 182.254Z" fill="#F5F5F5"/>
<path d="M85.0209 120.057L33.4844 149.823L33.6068 194.017L85.1569 164.251L85.0209 120.057ZM37.9717 186.415V182.214L37.8765 152.298L77.0389 129.698L80.6559 127.604L80.7511 161.735L37.9717 186.415Z" fill="#BCBCBC"/>
<path d="M85.0207 120.057L81.4036 117.949L29.8535 147.715L33.4842 149.823L85.0207 120.057Z" fill="#F5F5F5"/>
<path d="M29.8535 147.715L29.9759 191.895L33.6066 194.017L33.4842 149.823L29.8535 147.715Z" fill="#F0F0F0"/>
<path d="M64.5955 78.7054L75.2836 87.109L75.2972 95.3222L39.7791 115.828L39.752 107.615L46.5238 94.18L52.6021 98.8985L50.4536 105.575L53.5811 99.6464L64.5955 78.7054Z" fill="#BCBCBC"/>
<path d="M52.9289 82.8392C54.6015 81.8737 55.9613 82.6488 55.9749 84.5797C55.9284 85.6379 55.6302 86.6697 55.1052 87.5896C54.5802 88.5095 53.8435 89.291 52.9561 89.8693C51.2836 90.8348 49.9238 90.0597 49.9102 88.1424C49.9546 87.0819 50.2517 86.0473 50.7767 85.1249C51.3018 84.2024 52.0397 83.4188 52.9289 82.8392Z" fill="#BCBCBC"/>
<path d="M64.5955 141.08L75.2836 149.483L75.2972 157.696L39.7791 178.202L39.752 169.989L46.5238 156.541L52.6021 161.259L50.4536 167.936L53.5811 162.007L64.5955 141.08Z" fill="#BCBCBC"/>
<path d="M52.9289 145.213C54.6015 144.248 55.9613 145.023 55.9749 146.94C55.9199 147.989 55.6178 149.01 55.0931 149.92C54.5685 150.83 53.8363 151.603 52.9561 152.175C51.2836 153.141 49.9238 152.366 49.9102 150.435C49.9672 149.388 50.2704 148.37 50.7949 147.463C51.3194 146.556 52.0506 145.785 52.9289 145.213Z" fill="#BCBCBC"/>
<path d="M291.14 45.6893C291.14 34.2262 287.061 26.1761 280.52 22.3823L265.848 13.7203L265.644 13.6115C265.057 13.2718 264.449 12.972 263.822 12.7141C263.706 12.6672 263.588 12.6264 263.468 12.5917L262.843 12.3741C262.53 12.2653 262.231 12.1294 261.904 12.0342C261.578 11.939 261.197 11.871 260.857 11.7894L260.205 11.6534C260.093 11.6183 259.98 11.591 259.865 11.5718C259.136 11.444 258.4 11.3577 257.662 11.3135H256.995C256.424 11.3135 255.853 11.3135 255.255 11.3135L254.657 11.3815L253.569 11.4903C253.229 11.4903 252.889 11.4903 252.549 11.5854L251.638 11.7894C251.148 11.871 250.659 11.9798 250.156 12.1022C249.884 12.1022 249.625 12.1973 249.353 12.2789C248.741 12.4421 248.13 12.6325 247.504 12.8365H247.314C246.566 13.0812 245.831 13.3668 245.07 13.6795L244.173 14.0875L243.316 14.4818C242.214 14.9985 241.113 15.5561 239.984 16.2088L132.723 78.1478C131.554 78.8277 130.398 79.562 129.256 80.3507L128.168 81.1394C127.393 81.6969 126.631 82.268 125.87 82.8663L124.632 83.8997C123.939 84.4845 123.272 85.0828 122.579 85.6947L121.355 86.8369L120.58 87.5576C120.322 87.816 120.063 88.1151 119.805 88.3871C118.989 89.2166 118.173 90.0733 117.385 90.9571C117.14 91.2427 116.868 91.501 116.609 91.7866L115.998 92.5345C115.522 93.092 115.059 93.6767 114.638 94.2478C114.216 94.819 114.012 94.9957 113.713 95.3765C113.414 95.7572 113.237 96.0292 113.006 96.3555C112.775 96.6819 112.326 97.253 112 97.7153L111.293 98.6536C110.912 99.1975 110.558 99.755 110.191 100.313L109.484 101.36L109.199 101.795C108.546 102.815 107.92 103.834 107.308 104.882L107.2 105.085L106.846 105.711C106.425 106.445 106.003 107.193 105.609 107.941C105.418 108.281 105.255 108.635 105.078 108.988L104.521 110.076C104.371 110.402 104.194 110.715 104.045 111.028C103.623 111.884 103.243 112.741 102.862 113.611L102.658 114.06L102.59 114.183C102.128 115.27 101.679 116.358 101.23 117.446C101.162 117.65 101.094 117.854 101.013 118.058C100.931 118.262 100.741 118.847 100.591 119.241C100.441 119.635 100.183 120.329 100.006 120.886C99.8295 121.444 99.7479 121.729 99.6119 122.165C99.4759 122.6 99.2992 123.157 99.1632 123.647C99.0272 124.136 98.9592 124.272 98.8776 124.585C98.7144 125.143 98.6057 125.7 98.4697 126.258C98.3337 126.815 98.1433 127.495 98.0073 128.107C98.0073 128.325 97.8986 128.542 97.8442 128.76C97.749 129.208 97.7082 129.644 97.6266 130.119C97.4362 131.085 97.2595 132.05 97.1235 133.016C97.1235 133.288 97.0147 133.56 96.9875 133.818C96.9059 134.43 96.8651 135.028 96.8107 135.64C96.7563 136.252 96.7155 136.497 96.6883 136.918C96.5796 138.278 96.5116 139.638 96.5252 140.93L96.9875 347.905C96.9875 359.369 101.067 367.432 107.608 371.226L122.293 379.915C121.881 379.659 121.481 379.382 121.097 379.086C127.787 383.75 137.414 383.587 148.143 377.386L255.377 315.433C275.448 303.848 291.684 275.741 291.616 252.651L291.14 45.6893Z" fill="#89C5CC"/>
<path opacity="0.6" d="M291.14 45.6893C291.14 34.2262 287.061 26.1761 280.52 22.3823L265.848 13.7203L265.644 13.6115C265.057 13.2718 264.449 12.972 263.822 12.7141C263.706 12.6672 263.588 12.6264 263.468 12.5917L262.843 12.3741C262.53 12.2653 262.231 12.1294 261.904 12.0342C261.578 11.939 261.197 11.871 260.857 11.7894L260.205 11.6534C260.093 11.6183 259.98 11.591 259.865 11.5718C259.136 11.444 258.4 11.3577 257.662 11.3135H256.995C256.424 11.3135 255.853 11.3135 255.255 11.3135L254.657 11.3815L253.569 11.4903C253.229 11.4903 252.889 11.4903 252.549 11.5854L251.638 11.7894C251.148 11.871 250.659 11.9798 250.156 12.1022C249.884 12.1022 249.625 12.1973 249.353 12.2789C248.741 12.4421 248.13 12.6325 247.504 12.8365H247.314C246.566 13.0812 245.831 13.3668 245.07 13.6795L244.173 14.0875L243.316 14.4818C242.214 14.9985 241.113 15.5561 239.984 16.2088L132.723 78.1478C131.554 78.8277 130.398 79.562 129.256 80.3507L128.168 81.1394C127.393 81.6969 126.631 82.268 125.87 82.8663L124.632 83.8997C123.939 84.4845 123.272 85.0828 122.579 85.6947L121.355 86.8369L120.58 87.5576C120.322 87.816 120.063 88.1151 119.805 88.3871C118.989 89.2166 118.173 90.0733 117.385 90.9571C117.14 91.2427 116.868 91.501 116.609 91.7866L115.998 92.5345C115.522 93.092 115.059 93.6767 114.638 94.2478C114.216 94.819 114.012 94.9957 113.713 95.3765C113.414 95.7572 113.237 96.0292 113.006 96.3555C112.775 96.6819 112.326 97.253 112 97.7153L111.293 98.6536C110.912 99.1975 110.558 99.755 110.191 100.313L109.484 101.36L109.199 101.795C108.546 102.815 107.92 103.834 107.308 104.882L107.2 105.085L106.846 105.711C106.425 106.445 106.003 107.193 105.609 107.941C105.418 108.281 105.255 108.635 105.078 108.988L104.521 110.076C104.371 110.402 104.194 110.715 104.045 111.028C103.623 111.884 103.243 112.741 102.862 113.611L102.658 114.06L102.59 114.183C102.128 115.27 101.679 116.358 101.23 117.446C101.162 117.65 101.094 117.854 101.013 118.058C100.931 118.262 100.741 118.847 100.591 119.241C100.441 119.635 100.183 120.329 100.006 120.886C99.8295 121.444 99.7479 121.729 99.6119 122.165C99.4759 122.6 99.2992 123.157 99.1632 123.647C99.0272 124.136 98.9592 124.272 98.8776 124.585C98.7144 125.143 98.6057 125.7 98.4697 126.258C98.3337 126.815 98.1433 127.495 98.0073 128.107C98.0073 128.325 97.8986 128.542 97.8442 128.76C97.749 129.208 97.7082 129.644 97.6266 130.119C97.4362 131.085 97.2595 132.05 97.1235 133.016C97.1235 133.288 97.0147 133.56 96.9875 133.818C96.9059 134.43 96.8651 135.028 96.8107 135.64C96.7563 136.252 96.7155 136.497 96.6883 136.918C96.5796 138.278 96.5116 139.638 96.5252 140.93L96.9875 347.905C96.9875 359.369 101.067 367.432 107.608 371.226L122.293 379.915C121.881 379.659 121.481 379.382 121.097 379.086C127.787 383.75 137.414 383.587 148.143 377.386L255.377 315.433C275.448 303.848 291.684 275.741 291.616 252.651L291.14 45.6893Z" fill="black"/>
<path opacity="0.1" d="M111.647 356.554L111.239 149.592L96.5527 140.903L97.0151 347.878C97.0151 359.341 101.094 367.405 107.635 371.199L122.321 379.888C115.74 376.094 111.687 368.031 111.647 356.554Z" fill="black"/>
<path opacity="0.3" d="M258.858 22.7902C259.883 22.3195 260.932 21.9019 262 21.5392H262.19C263.087 21.24 263.971 21.0089 264.91 20.8049L266.392 20.4785C267.044 20.3562 267.684 20.261 268.323 20.193L269.41 20.0706C270.19 20.0302 270.97 20.0302 271.749 20.0706H272.28C273.193 20.1251 274.101 20.2387 274.999 20.4106L275.652 20.5601C276.324 20.7181 276.987 20.9133 277.637 21.1448L278.263 21.3488C279.084 21.6687 279.879 22.0505 280.642 22.4911L265.848 13.7203L265.644 13.6115C265.057 13.2718 264.449 12.972 263.822 12.7141C263.706 12.6672 263.588 12.6264 263.468 12.5917L262.843 12.3741C262.53 12.2653 262.231 12.1294 261.904 12.0342C261.578 11.939 261.197 11.871 260.857 11.7894L260.205 11.6534C260.093 11.6183 259.98 11.591 259.865 11.5718C259.136 11.444 258.4 11.3577 257.662 11.3135H256.995C256.424 11.3135 255.853 11.3135 255.255 11.3135L254.657 11.3815L253.569 11.4903C253.229 11.4903 252.889 11.4903 252.549 11.5854L251.638 11.7894C251.148 11.871 250.659 11.9798 250.156 12.1022C249.884 12.1022 249.625 12.1973 249.353 12.2789C248.741 12.4421 248.13 12.6325 247.504 12.8365H247.314C246.566 13.0812 245.831 13.3668 245.07 13.6795L244.173 14.0875L243.316 14.4818C242.214 14.9985 241.113 15.5561 239.984 16.2088L132.723 78.1478C131.554 78.8277 130.398 79.562 129.256 80.3507L128.168 81.1529C127.393 81.6969 126.631 82.268 125.87 82.8663L124.632 83.8997C123.939 84.4845 123.272 85.0828 122.579 85.6947L121.355 86.8369L120.58 87.5576C120.322 87.816 120.063 88.1151 119.805 88.3871C118.989 89.2166 118.173 90.0733 117.385 90.9571C117.14 91.2427 116.868 91.501 116.609 91.7866L115.998 92.5345C115.522 93.092 115.059 93.6767 114.638 94.2478C114.216 94.819 114.012 94.9957 113.713 95.3765C113.414 95.7572 113.237 96.0292 113.006 96.3555C112.775 96.6819 112.326 97.253 112 97.7153L111.293 98.6536C110.912 99.1975 110.558 99.755 110.191 100.313L109.484 101.36L109.199 101.795C108.546 102.815 107.92 103.834 107.308 104.882L107.2 105.085L106.846 105.711C106.425 106.459 106.003 107.193 105.609 107.941C105.418 108.281 105.255 108.635 105.078 108.988L104.521 110.076C104.371 110.402 104.194 110.715 104.045 111.028C103.623 111.884 103.243 112.741 102.862 113.611L102.658 114.06L102.59 114.183C102.128 115.27 101.679 116.358 101.23 117.446C101.162 117.65 101.094 117.854 101.013 118.058C100.931 118.262 100.741 118.847 100.591 119.241C100.441 119.635 100.183 120.329 100.006 120.886C99.8295 121.444 99.7479 121.729 99.6119 122.165C99.4759 122.6 99.2992 123.157 99.1632 123.647C99.0272 124.136 98.9592 124.272 98.8776 124.585C98.7144 125.143 98.6057 125.7 98.4697 126.258C98.3337 126.815 98.1433 127.495 98.0073 128.107C98.0073 128.325 97.8986 128.542 97.8442 128.76C97.749 129.208 97.7082 129.644 97.6266 130.119C97.4362 131.085 97.2595 132.05 97.1235 133.016C97.1235 133.288 97.0147 133.56 96.9875 133.818C96.9059 134.43 96.8651 135.028 96.8107 135.64C96.7563 136.252 96.7155 136.497 96.6883 136.918C96.5796 138.278 96.5116 139.638 96.5252 140.93L111.211 149.619C111.211 148.259 111.211 146.899 111.361 145.608C111.361 145.172 111.456 144.751 111.497 144.316C111.578 143.446 111.687 142.575 111.809 141.705C111.932 140.835 112.122 139.774 112.312 138.809C112.435 138.142 112.544 137.449 112.693 136.823C112.843 136.198 112.992 135.586 113.156 134.96C113.373 134.104 113.591 133.233 113.835 132.363C113.985 131.874 114.148 131.37 114.298 130.867C114.611 129.902 114.937 128.923 115.277 127.957C115.413 127.563 115.549 127.155 115.698 126.761C116.202 125.401 116.732 124.041 117.317 122.777L117.521 122.314C118.051 121.131 118.595 119.962 119.179 118.792C119.356 118.425 119.547 118.058 119.737 117.704C120.295 116.603 120.893 115.515 121.505 114.427L121.858 113.802C122.593 112.537 123.354 111.3 124.143 110.076L124.85 109.015C125.435 108.145 126.033 107.288 126.645 106.432L127.665 105.072C128.195 104.365 128.752 103.712 129.296 102.978L130.656 101.251L132.016 99.6871C132.805 98.8032 133.621 97.9465 134.436 97.117C134.953 96.5867 135.456 96.07 135.987 95.5669C136.517 95.0637 136.803 94.7918 137.21 94.4246C137.89 93.7991 138.57 93.2008 139.264 92.6297L140.501 91.5962C141.263 90.9979 142.024 90.4268 142.799 89.8693C143.166 89.6109 143.52 89.3254 143.887 89.0806C145.029 88.2919 146.185 87.5576 147.355 86.8777L254.616 24.9523C255.744 24.2996 256.846 23.7421 257.947 23.2254L258.858 22.7902Z" fill="black"/>
<path d="M129.937 356.499C129.937 361 130.929 363.298 131.432 364.006C131.586 364.019 131.741 364.019 131.895 364.006C132.724 364.006 135.063 363.761 138.979 361.504L246.24 299.578C260.722 291.215 273.437 269.309 273.328 252.679L273.219 199.51L129.76 283.233L129.937 356.499Z" fill="#89C5CC"/>
<path d="M272.864 45.7438C272.864 41.1884 271.831 38.9448 271.341 38.2377H270.729H270.308L269.709 38.3329L269.138 38.4552C268.785 38.5368 268.282 38.6728 267.915 38.7952H267.738C267.371 38.9312 266.881 39.1215 266.378 39.3799L265.875 39.6111C265.059 39.9918 264.42 40.3182 263.862 40.6445L156.601 102.57C155.935 102.964 155.241 103.427 154.412 103.93L153.596 104.514C153.066 104.909 152.535 105.303 152.019 105.711L151.284 106.309L151.135 106.445C150.618 106.867 150.128 107.302 149.639 107.737L148.728 108.594L147.749 109.587L147.572 109.763C146.946 110.389 146.335 111.042 145.75 111.708L145.546 111.925L144.676 112.904L143.574 114.264C143.139 114.808 142.704 115.352 142.296 115.91L141.494 116.97C141.018 117.65 140.542 118.33 140.134 119.024L139.563 119.867C138.91 120.886 138.298 121.879 137.768 122.79L137.469 123.321C136.979 124.177 136.517 125.047 136.109 125.918L135.674 126.774C135.211 127.699 134.776 128.624 134.314 129.494C134.232 129.671 134.164 129.848 134.069 130.038C133.688 130.935 133.294 131.914 132.873 133.016L132.546 133.941C132.274 134.688 132.029 135.436 131.798 136.184C131.676 136.565 131.554 136.946 131.445 137.313C131.254 137.966 131.091 138.605 130.928 139.285L130.833 139.652L130.588 140.631L130.425 141.474L130.316 142.072C130.18 142.766 130.058 143.432 129.963 144.139C129.867 144.846 129.799 145.336 129.745 145.934L129.65 146.804C129.568 147.824 129.541 148.667 129.541 149.415L129.827 277.033L273.286 193.31L272.864 45.7438Z" fill="#455A64"/>
<path d="M129.746 277.169L129.76 283.261L273.219 199.537L273.192 193.446L129.746 277.169Z" fill="black"/>
<path d="M250.006 117.691L236.34 125.591C241.263 114.713 240.583 103.834 234.301 100.299C230.792 98.3 226.142 98.9391 221.627 101.659C216.341 104.945 211.986 109.534 208.981 114.985L205.242 121.457L204.603 113.19C204.603 112.496 204.031 112.224 203.338 112.578C203.01 112.792 202.73 113.072 202.514 113.4C202.299 113.727 202.154 114.095 202.087 114.482L200.918 122.11L198.769 120.886C195.261 118.887 190.61 119.527 186.082 122.178C180.797 125.462 176.447 130.051 173.45 135.504C167.194 146.383 166.583 157.887 171.559 163.067L157.866 170.968C157.494 171.203 157.184 171.525 156.964 171.907C156.744 172.288 156.619 172.717 156.602 173.157C156.602 173.959 157.173 174.286 157.866 173.891L173.789 164.658L178.698 167.46L204.113 181.928L207.009 176.91L207.132 178.474C207.132 179.181 207.73 179.453 208.396 179.086C208.74 178.859 209.031 178.56 209.25 178.211C209.468 177.861 209.608 177.468 209.661 177.06L210.164 171.444L229.351 138.21L234.233 129.766L250.088 120.614C250.445 120.367 250.74 120.041 250.95 119.662C251.16 119.282 251.279 118.859 251.298 118.425C251.298 117.609 250.714 117.283 250.006 117.691Z" fill="#89C5CC"/>
<path d="M203.323 112.51C204.016 112.157 204.533 112.428 204.587 113.122L205.226 121.39L208.476 162.673L212.406 119.663C212.447 119.264 212.576 118.879 212.782 118.536C212.989 118.193 213.269 117.9 213.603 117.677C214.256 117.297 214.786 117.473 214.895 118.112L219.545 143.242L220.415 136.021C220.472 135.624 220.613 135.244 220.828 134.906C221.044 134.568 221.33 134.281 221.666 134.063L236.339 125.591L250.018 117.691C250.725 117.283 251.297 117.609 251.297 118.425C251.271 118.863 251.143 119.29 250.924 119.67C250.704 120.05 250.399 120.373 250.032 120.614L234.177 129.766L222.741 136.347L220.932 151.305C220.878 151.698 220.741 152.074 220.53 152.409C220.319 152.745 220.039 153.031 219.708 153.25C219.069 153.617 218.553 153.427 218.43 152.801L213.984 128.665L210.095 171.458L209.591 177.073C209.539 177.482 209.398 177.875 209.18 178.224C208.962 178.574 208.671 178.873 208.327 179.1C207.66 179.467 207.117 179.195 207.062 178.488L206.94 176.924L202.86 124.816L196.061 168.996C195.993 169.378 195.848 169.743 195.636 170.068C195.423 170.392 195.147 170.671 194.824 170.886C194.117 171.254 193.614 170.982 193.559 170.288L190.84 139.013L187.753 155.507C187.677 155.877 187.528 156.229 187.316 156.542C187.104 156.854 186.832 157.122 186.516 157.329L173.788 164.658L157.919 173.824C157.225 174.218 156.654 173.824 156.654 173.089C156.672 172.649 156.796 172.22 157.017 171.839C157.237 171.457 157.547 171.135 157.919 170.9L171.612 163L185.564 154.936L190.187 130.283C190.259 129.909 190.406 129.554 190.619 129.239C190.831 128.923 191.105 128.654 191.424 128.447C192.132 128.093 192.621 128.379 192.689 129.045L195.327 158.961L200.97 122.015L202.14 114.387C202.202 114.011 202.338 113.651 202.542 113.329C202.745 113.006 203.01 112.728 203.323 112.51Z" fill="black"/>
<path d="M186.244 208.43L186.285 226.176L181.077 229.181L181.036 215.95L178.385 217.473V212.972L186.244 208.43Z" fill="black"/>
<path d="M193.901 203.603C197.559 201.495 200.143 202.243 200.156 205.561C200.156 207.302 199.776 209.097 197.518 212.741L195.329 216.331L200.523 213.339V217.976L188.149 225.129V221.457L193.724 212.292C194.42 211.383 194.84 210.292 194.935 209.151C194.935 208.308 194.418 208.063 193.425 208.634C192.349 209.325 191.547 210.368 191.154 211.585H187.225C188.44 208.221 190.804 205.394 193.901 203.603Z" fill="black"/>
<path d="M208.546 195.145C212.625 192.806 215.549 194.506 215.563 200.38C215.651 203.012 215.056 205.621 213.835 207.954C212.615 210.287 210.812 212.264 208.6 213.693C204.521 216.059 201.584 214.346 201.57 208.458C201.486 205.826 202.085 203.216 203.307 200.884C204.529 198.551 206.334 196.574 208.546 195.145ZM208.546 208.906C209.552 208.322 210.3 206.826 210.287 203.467C210.273 200.108 209.525 199.388 208.519 200.013C207.513 200.639 206.751 202.094 206.765 205.452C206.778 208.811 207.54 209.532 208.546 208.92" fill="black"/>
<path d="M222.293 199.701C223.558 198.966 224.645 199.442 224.645 201.224C224.635 202.071 224.417 202.902 224.009 203.644C223.601 204.387 223.016 205.017 222.306 205.48C221.708 205.82 221.273 205.901 220.947 205.697V206.146L219.043 207.248V199.673L221.042 198.518V200.897C221.339 200.389 221.772 199.974 222.293 199.701ZM221.817 203.97C222.072 203.8 222.279 203.566 222.417 203.292C222.555 203.018 222.62 202.713 222.606 202.407C222.606 201.686 222.252 201.523 221.817 201.781C221.564 201.946 221.359 202.175 221.222 202.445C221.086 202.715 221.024 203.016 221.042 203.318C221.042 204.038 221.382 204.215 221.817 203.97Z" fill="black"/>
<path d="M228.508 196.097C229.773 195.376 230.847 195.866 230.847 197.661C230.842 198.504 230.627 199.332 230.221 200.071C229.815 200.809 229.231 201.435 228.521 201.89C227.991 202.189 227.583 202.284 227.284 202.121V204.487L225.285 205.643V198.096L227.189 196.995V197.443C227.494 196.88 227.951 196.414 228.508 196.097ZM228.046 200.381C228.3 200.213 228.507 199.982 228.646 199.71C228.784 199.438 228.849 199.135 228.834 198.83C228.834 198.11 228.481 197.933 228.032 198.191C227.776 198.361 227.569 198.594 227.43 198.869C227.292 199.143 227.228 199.448 227.243 199.755C227.243 200.476 227.597 200.639 228.046 200.381Z" fill="black"/>
<path d="M237.905 190.671C239.006 190.046 239.836 190.331 239.836 192.031V195.213L237.837 196.369V193.649C237.837 192.942 237.619 192.806 237.306 192.983C237.09 193.133 236.917 193.338 236.807 193.577C236.697 193.816 236.654 194.081 236.681 194.343V197.062L234.682 198.218V195.499C234.682 194.792 234.464 194.656 234.124 194.846C233.908 194.996 233.735 195.201 233.625 195.44C233.515 195.679 233.472 195.944 233.499 196.206V198.925L231.486 200.081V194.506L233.39 193.418V193.921C233.72 193.36 234.188 192.891 234.75 192.561C235.389 192.194 235.933 192.154 236.273 192.561C236.624 191.788 237.19 191.131 237.905 190.671Z" fill="black"/>
<path d="M154.875 284.321C159.688 281.533 163.605 283.777 163.632 289.298C163.475 292.318 162.605 295.259 161.092 297.878C159.579 300.497 157.467 302.72 154.929 304.365C150.102 307.152 146.185 304.922 146.172 299.374C146.332 296.356 147.203 293.419 148.716 290.803C150.228 288.186 152.339 285.965 154.875 284.321Z" fill="black"/>
<path d="M259.919 231.765L259.933 235.531L173.096 285.667L173.082 281.914L259.919 231.765Z" fill="black"/>
<path d="M260.015 261.014V264.781L173.178 314.917L173.164 311.15L260.015 261.014Z" fill="black"/>
<path d="M219.749 291.311L219.763 295.064L173.189 321.947V318.194L219.749 291.311Z" fill="black"/>
<path d="M207.336 284.375V288.142L173.15 307.886V304.12L207.336 284.375Z" fill="black"/>
<path d="M250.467 244.275L250.48 248.028L173.107 292.697V288.944L250.467 244.275Z" fill="black"/>
<path d="M226.4 244.085L226.413 247.838L173.068 278.637V274.871L226.4 244.085Z" fill="black"/>
<path d="M154.955 313.516C159.768 310.728 163.698 312.959 163.712 318.493C163.552 321.513 162.68 324.452 161.168 327.07C159.655 329.689 157.545 331.912 155.009 333.56C150.195 336.347 146.266 334.103 146.252 328.569C146.412 325.551 147.283 322.614 148.796 319.998C150.309 317.381 152.419 315.16 154.955 313.516Z" fill="black"/>
<path d="M372.24 353.14L357.378 344.506L159.322 443.132L174.226 451.74L372.24 353.14Z" fill="#455A64"/>
<path d="M468.309 408.974L270.635 507.397L286.626 516.63L484.233 418.221L468.309 408.974Z" fill="#455A64"/>
<path opacity="0.3" d="M372.24 353.14L357.378 344.506L159.322 443.132L174.226 451.74L372.24 353.14Z" fill="white"/>
<path d="M270.634 507.396L174.224 451.74L159.32 443.132L131.607 439.488L258.477 513.216L286.625 516.63L270.634 507.396Z" fill="#455A64"/>
<path opacity="0.5" d="M270.634 507.396L174.224 451.74L159.32 443.132L131.607 439.488L258.477 513.216L286.625 516.63L270.634 507.396Z" fill="white"/>
<path opacity="0.3" d="M468.309 408.974L270.635 507.397L286.626 516.63L484.233 418.221L468.309 408.974Z" fill="white"/>
<path d="M258.477 513.216L131.607 439.488L131.635 472.939L131.662 487.679L258.518 561.408L258.477 513.216Z" fill="#455A64"/>
<path d="M143.873 476.692V465.569C143.871 465.091 143.995 464.62 144.233 464.205C144.471 463.791 144.814 463.446 145.228 463.206C145.642 462.966 146.112 462.839 146.59 462.839C147.068 462.838 147.538 462.964 147.952 463.203L242.758 518.302C243.791 518.899 244.65 519.757 245.246 520.791C245.843 521.824 246.157 522.997 246.157 524.19V535.313C246.159 535.792 246.035 536.262 245.797 536.677C245.559 537.092 245.216 537.437 244.802 537.677C244.389 537.917 243.919 538.043 243.441 538.044C242.962 538.044 242.492 537.919 242.078 537.679L147.313 482.58C146.272 481.989 145.406 481.133 144.802 480.099C144.198 479.065 143.877 477.89 143.873 476.692Z" fill="#37474F"/>
<path d="M258.479 513.217L258.519 561.408L484.287 431.057L484.233 418.221L286.626 516.63L258.479 513.217Z" fill="#455A64"/>
<path opacity="0.1" d="M258.479 513.217L258.519 561.408L484.287 431.057L484.233 418.221L286.626 516.63L258.479 513.217Z" fill="white"/>
<path d="M372.238 353.141L372.225 359.219H360.027L372.238 353.141Z" fill="#455A64"/>
<path d="M361.998 358.24L174.223 451.74L270.633 507.397L462.664 411.775L371.04 358.525C369.675 357.731 368.134 357.289 366.555 357.24C364.977 357.19 363.41 357.533 361.998 358.24Z" fill="#37474F"/>
<path d="M260.966 366.167C259.884 366.167 258.847 366.597 258.082 367.362C257.317 368.127 256.887 369.165 256.887 370.247V505.806C259.353 507.344 262.149 508.277 265.046 508.525V370.261C265.047 369.724 264.943 369.192 264.739 368.695C264.535 368.199 264.235 367.747 263.856 367.367C263.477 366.987 263.026 366.685 262.53 366.479C262.035 366.273 261.503 366.167 260.966 366.167Z" fill="#BCBCBC"/>
<path opacity="0.2" d="M260.966 366.167C259.884 366.167 258.847 366.597 258.082 367.362C257.317 368.127 256.887 369.165 256.887 370.247V505.806C259.353 507.344 262.149 508.277 265.046 508.525V370.261C265.047 369.724 264.943 369.192 264.739 368.695C264.535 368.199 264.235 367.747 263.856 367.367C263.477 366.987 263.026 366.685 262.53 366.479C262.035 366.273 261.503 366.167 260.966 366.167Z" fill="black"/>
<path opacity="0.3" d="M260.966 366.168C259.884 366.168 258.847 366.597 258.082 367.362C257.317 368.127 256.887 369.165 256.887 370.247V381.982C259.297 382.411 261.74 382.629 264.189 382.635H265.059V370.261C265.061 369.723 264.956 369.189 264.751 368.692C264.546 368.195 264.245 367.743 263.864 367.362C263.484 366.982 263.032 366.68 262.535 366.475C262.037 366.27 261.504 366.166 260.966 366.168Z" fill="black"/>
<path d="M153.581 308.186C152.499 308.186 151.462 308.615 150.697 309.38C149.932 310.145 149.502 311.183 149.502 312.265V445.145C152 446.562 154.793 447.381 157.661 447.538V312.279C157.663 311.742 157.558 311.21 157.354 310.713C157.15 310.217 156.85 309.765 156.471 309.385C156.092 309.005 155.641 308.703 155.146 308.497C154.65 308.292 154.118 308.186 153.581 308.186Z" fill="#BCBCBC"/>
<path opacity="0.2" d="M153.581 308.186C152.499 308.186 151.462 308.615 150.697 309.38C149.932 310.145 149.502 311.183 149.502 312.265V445.145C152 446.562 154.793 447.381 157.661 447.538V312.279C157.663 311.742 157.558 311.21 157.354 310.713C157.15 310.217 156.85 309.765 156.471 309.385C156.092 309.005 155.641 308.703 155.146 308.497C154.65 308.292 154.118 308.186 153.581 308.186Z" fill="black"/>
<path opacity="0.3" d="M153.581 308.186C152.499 308.186 151.462 308.615 150.697 309.38C149.932 310.145 149.502 311.183 149.502 312.265V322.912L157.661 327.644V312.279C157.663 311.742 157.558 311.21 157.354 310.713C157.15 310.217 156.85 309.765 156.471 309.385C156.092 309.005 155.641 308.703 155.146 308.497C154.65 308.292 154.118 308.186 153.581 308.186Z" fill="black"/>
<path d="M184.584 280.568C184.311 280.187 183.946 279.88 183.523 279.676C183.1 279.471 182.633 279.376 182.164 279.398L155.893 285.382C156.378 285.333 156.868 285.416 157.311 285.621C157.753 285.827 158.132 286.148 158.408 286.551C159.228 287.637 159.779 288.902 160.015 290.243C160.252 291.583 160.167 292.96 159.768 294.261C159.66 294.736 159.427 295.174 159.092 295.528C158.757 295.882 158.333 296.139 157.864 296.274L184.013 290.29C184.487 290.161 184.916 289.905 185.256 289.551C185.596 289.196 185.834 288.757 185.944 288.278C186.336 286.976 186.416 285.6 186.18 284.261C185.944 282.922 185.398 281.658 184.584 280.568Z" fill="#455A64"/>
<path d="M159.822 294.261C160.221 292.96 160.306 291.583 160.07 290.242C159.833 288.902 159.283 287.637 158.463 286.551C158.187 286.148 157.808 285.827 157.365 285.621C156.922 285.416 156.433 285.333 155.947 285.382L155.784 285.45C155.354 285.607 154.969 285.867 154.662 286.205C154.354 286.544 154.132 286.952 154.016 287.394C153.619 288.695 153.536 290.072 153.772 291.412C154.008 292.752 154.558 294.017 155.376 295.104C155.648 295.505 156.022 295.826 156.459 296.034C156.897 296.242 157.382 296.329 157.864 296.287H157.932C158.4 296.15 158.822 295.889 159.155 295.533C159.487 295.176 159.718 294.737 159.822 294.261Z" fill="#263238"/>
<path d="M312.174 355.643C311.905 355.259 311.543 354.949 311.123 354.743C310.702 354.536 310.236 354.439 309.767 354.46L283.496 360.47C283.983 360.423 284.474 360.508 284.917 360.716C285.359 360.924 285.738 361.248 286.012 361.653C286.829 362.738 287.378 364.001 287.614 365.338C287.85 366.676 287.767 368.05 287.372 369.349C287.255 369.823 287.016 370.257 286.68 370.61C286.344 370.963 285.921 371.222 285.454 371.362L311.603 365.392C312.072 365.254 312.497 364.995 312.835 364.642C313.174 364.289 313.415 363.854 313.534 363.38C313.935 362.075 314.021 360.693 313.785 359.348C313.549 358.003 312.997 356.733 312.174 355.643Z" fill="#455A64"/>
<path d="M283.309 360.47C283.363 360.464 283.418 360.464 283.472 360.47H283.309Z" fill="#455A64"/>
<path d="M287.429 369.322C287.824 368.023 287.907 366.649 287.671 365.311C287.435 363.974 286.886 362.711 286.069 361.626C285.795 361.221 285.416 360.897 284.974 360.689C284.531 360.48 284.04 360.395 283.553 360.443C283.499 360.437 283.444 360.437 283.39 360.443C282.961 360.603 282.577 360.865 282.272 361.206C281.966 361.547 281.748 361.957 281.636 362.401C281.237 363.7 281.152 365.075 281.389 366.413C281.625 367.751 282.176 369.014 282.996 370.097C283.268 370.498 283.642 370.819 284.079 371.027C284.517 371.235 285.002 371.323 285.484 371.28C285.95 371.15 286.374 370.901 286.714 370.557C287.055 370.214 287.301 369.789 287.429 369.322Z" fill="#263238"/>
<g opacity="0.4">
<path d="M184.586 280.568C184.312 280.187 183.948 279.88 183.525 279.676C183.102 279.471 182.635 279.376 182.166 279.398L155.895 285.382C156.38 285.333 156.87 285.416 157.313 285.621C157.755 285.827 158.134 286.148 158.41 286.551C159.23 287.637 159.781 288.902 160.017 290.243C160.254 291.583 160.169 292.96 159.77 294.261C159.662 294.736 159.428 295.174 159.094 295.528C158.759 295.882 158.335 296.139 157.866 296.274L184.015 290.29C184.489 290.161 184.918 289.905 185.258 289.551C185.598 289.196 185.836 288.757 185.946 288.278C186.338 286.976 186.418 285.6 186.182 284.261C185.946 282.922 185.4 281.658 184.586 280.568Z" fill="white"/>
</g>
<g opacity="0.4">
<path d="M312.178 355.643C311.909 355.259 311.547 354.95 311.126 354.743C310.706 354.536 310.24 354.439 309.771 354.46L283.5 360.47C283.987 360.423 284.478 360.508 284.92 360.716C285.363 360.924 285.742 361.248 286.016 361.653C286.833 362.738 287.382 364.001 287.618 365.338C287.854 366.676 287.771 368.05 287.375 369.35C287.259 369.823 287.02 370.257 286.684 370.61C286.348 370.963 285.925 371.222 285.458 371.362L311.607 365.393C312.076 365.254 312.501 364.995 312.839 364.642C313.178 364.289 313.419 363.854 313.538 363.38C313.939 362.075 314.025 360.693 313.789 359.348C313.553 358.003 313.001 356.733 312.178 355.643Z" fill="white"/>
<path d="M283.309 360.47C283.363 360.464 283.418 360.464 283.472 360.47H283.309Z" fill="white"/>
</g>
<path d="M282.953 362.537L272.51 365.148C263.939 367.307 254.863 366.034 247.218 361.599L151.542 306.363C150.596 305.827 149.833 305.02 149.35 304.046C148.868 303.072 148.688 301.976 148.834 300.899C148.981 299.822 149.446 298.813 150.171 298.004C150.896 297.194 151.847 296.62 152.902 296.355L157.09 295.322C158.531 294.152 158.368 287.802 155.309 287.34L150.917 288.414C148.27 289.058 145.877 290.481 144.049 292.501C142.221 294.52 141.041 297.042 140.663 299.74C140.285 302.438 140.726 305.187 141.928 307.631C143.131 310.075 145.04 312.102 147.408 313.448L243.138 368.629C249.541 372.346 256.812 374.306 264.215 374.313C267.703 374.284 271.174 373.828 274.55 372.953L284.776 370.41C286.176 369.363 286.013 363.013 282.953 362.537Z" fill="#BCBCBC"/>
<path d="M162.787 322.912V294.56L224.141 329.997V358.335L162.787 322.912Z" fill="#455A64"/>
<path d="M224.143 329.997L260.966 347.96V358.335H224.143V329.997Z" fill="#455A64"/>
<path d="M162.787 294.56L224.141 329.997L260.965 347.96L199.597 312.537L162.787 294.56Z" fill="#455A64"/>
<path opacity="0.1" d="M224.143 329.997L260.966 347.96V358.335H224.143V329.997Z" fill="white"/>
<path opacity="0.3" d="M162.787 294.56L224.141 329.997L260.965 347.96L199.597 312.537L162.787 294.56Z" fill="white"/>
<path opacity="0.2" d="M367.63 406.975C391.113 420.573 391.236 442.507 367.915 456.064C344.595 469.621 306.642 469.662 283.159 456.064C259.675 442.466 259.566 420.533 282.887 406.975C306.207 393.418 344.159 393.418 367.63 406.975Z" fill="black"/>
<path d="M323.193 253.766L328.347 231.289C321.32 232.272 314.675 235.086 309.078 239.448L282.1 260.661L300.661 266.385L323.193 253.766Z" fill="#FFA8A7"/>
<path d="M335.795 354.84L339.562 363.339C340.617 365.734 342.411 367.727 344.683 369.026C346.954 370.326 349.582 370.863 352.181 370.56L384 366.929C386.674 366.627 389.381 366.825 391.982 367.514L398.944 369.363V353.046L397.04 353.603C393.378 354.691 389.492 354.785 385.781 353.875L374.182 351.019C368.692 349.671 362.942 349.812 357.525 351.427L356.342 341.8L335.795 354.84Z" fill="#F28F8F"/>
<path d="M422.268 376.325C422.148 372.385 420.493 368.648 417.658 365.909C415.564 363.924 412.926 362.591 410.941 360.47C408.642 358.009 407.691 355.303 405.732 352.515C405.387 352.045 404.916 351.682 404.373 351.468C404.174 351.448 403.973 351.448 403.774 351.468C403.081 351.523 402.406 351.717 401.789 352.039C402.58 352.175 403.288 352.614 403.761 353.263C405.732 355.983 407.119 359.246 409.431 361.653C411.403 363.706 414.041 365.012 416.135 366.956C418.958 369.602 420.616 373.26 420.745 377.128C420.853 380.949 419.453 387.544 416.665 387.544C417.545 387.757 418.473 387.616 419.249 387.149C421.669 384.743 422.336 379.167 422.268 376.325Z" fill="#EBEBEB"/>
<path d="M405.731 352.515C407.689 355.303 408.641 357.954 410.939 360.47C412.924 362.591 415.562 363.924 417.657 365.909C420.492 368.648 422.146 372.385 422.266 376.325C422.266 379.167 421.668 384.743 419.343 387.109C422.307 385.327 423.123 379.031 423.028 375.958C422.897 372.094 421.245 368.439 418.432 365.787C416.338 363.842 413.686 362.537 411.714 360.47C409.403 358.063 408.464 355.412 406.493 352.706C406.247 352.37 405.936 352.087 405.579 351.874C405.221 351.662 404.824 351.524 404.412 351.468C404.94 351.688 405.397 352.051 405.731 352.515Z" fill="#455A64"/>
<path d="M396.334 353.182C395.659 353.478 394.917 353.586 394.185 353.494C394.185 353.494 392.037 353.277 391.33 353.141C389.97 352.882 389.834 354.419 389.834 354.419C390.643 354.505 391.459 354.505 392.268 354.419C392.452 354.702 392.694 354.942 392.977 355.125C393.261 355.308 393.58 355.429 393.913 355.48C394.595 355.613 395.26 355.818 395.899 356.092C396.215 356.236 396.482 356.47 396.666 356.765C396.849 357.06 396.942 357.403 396.932 357.751C396.81 358.512 396.062 358.961 395.572 359.6C395.345 359.971 395.215 360.395 395.196 360.83C395.177 361.265 395.269 361.698 395.464 362.088C395.027 361.901 394.54 361.87 394.084 362.001C393.628 362.133 393.231 362.418 392.962 362.809C392.45 363.631 392.143 364.564 392.064 365.529C391.924 366.171 391.878 366.831 391.928 367.487C391.951 367.817 392.041 368.14 392.193 368.435C392.345 368.729 392.556 368.99 392.812 369.2C393.072 369.403 393.393 369.513 393.723 369.513C394.053 369.513 394.374 369.403 394.634 369.2C396.375 372.028 404.329 373.103 408.314 378.447C412.298 383.791 413.168 387.585 416.704 387.585C419.423 387.585 420.783 380.99 420.783 377.169C420.655 373.301 418.997 369.643 416.173 366.997C414.079 365.053 411.441 363.747 409.47 361.694C407.158 359.287 405.771 356.024 403.799 353.304C403.326 352.655 402.619 352.216 401.827 352.08C401.588 352.053 401.346 352.053 401.107 352.08C399.461 352.145 397.842 352.519 396.334 353.182Z" fill="#89C5CC"/>
<path d="M415.671 386.592L416.568 384.131C416.629 383.971 416.732 383.831 416.866 383.726C417 383.62 417.16 383.553 417.33 383.532C420.049 383.206 420.906 382.798 422.089 381.547C421.919 383.074 421.428 384.548 420.648 385.871C420.191 386.665 419.443 387.25 418.563 387.504C417.683 387.758 416.739 387.66 415.929 387.231C415.813 387.177 415.721 387.082 415.673 386.963C415.625 386.844 415.624 386.711 415.671 386.592Z" fill="#455A64"/>
<path d="M398.457 363.693C398.456 363.79 398.435 363.887 398.395 363.975C398.355 364.064 398.298 364.144 398.226 364.21C397.323 364.986 396.706 366.043 396.472 367.21C396.238 368.378 396.4 369.59 396.934 370.655C397 370.814 397.004 370.991 396.944 371.152C396.884 371.313 396.766 371.446 396.613 371.523C396.46 371.601 396.283 371.617 396.118 371.57C395.953 371.522 395.812 371.414 395.724 371.267C395.059 369.929 394.853 368.409 395.139 366.943C395.427 365.478 396.198 364.152 397.328 363.176C397.466 363.059 397.644 363.001 397.825 363.014C398.005 363.027 398.173 363.109 398.294 363.244C398.401 363.369 398.459 363.529 398.457 363.693Z" fill="#37474F"/>
<path d="M402.631 365.61C402.63 365.794 402.557 365.97 402.427 366.1C401.567 366.952 400.941 368.012 400.61 369.176C400.279 370.341 400.254 371.572 400.537 372.749C400.558 372.838 400.562 372.931 400.547 373.022C400.533 373.112 400.501 373.199 400.453 373.278C400.405 373.356 400.342 373.424 400.268 373.478C400.193 373.532 400.109 373.571 400.02 373.592C399.931 373.614 399.838 373.617 399.747 373.603C399.657 373.588 399.57 373.556 399.491 373.508C399.413 373.46 399.345 373.397 399.291 373.323C399.237 373.249 399.198 373.165 399.177 373.075C398.842 371.667 398.874 370.196 399.269 368.804C399.664 367.411 400.41 366.143 401.434 365.121C401.497 365.057 401.573 365.006 401.655 364.972C401.738 364.937 401.827 364.919 401.917 364.919C402.007 364.919 402.095 364.937 402.178 364.972C402.261 365.006 402.336 365.057 402.4 365.121C402.47 365.181 402.527 365.256 402.567 365.341C402.607 365.425 402.629 365.517 402.631 365.61Z" fill="#37474F"/>
<path d="M406.315 368.629C406.316 368.731 406.293 368.832 406.248 368.924C406.203 369.016 406.138 369.097 406.057 369.159C405.289 369.789 404.699 370.608 404.344 371.536C403.988 372.463 403.881 373.467 404.031 374.449C404.058 374.627 404.016 374.809 403.912 374.956C403.808 375.103 403.65 375.204 403.473 375.237C403.295 375.265 403.113 375.223 402.966 375.119C402.818 375.014 402.718 374.857 402.684 374.68C402.491 373.455 402.623 372.201 403.067 371.044C403.51 369.886 404.251 368.866 405.214 368.085C405.355 367.974 405.534 367.923 405.712 367.943C405.89 367.963 406.053 368.054 406.166 368.194C406.264 368.317 406.317 368.471 406.315 368.629Z" fill="#37474F"/>
<path d="M409.348 371.552C409.346 371.648 409.324 371.742 409.285 371.828C409.245 371.915 409.188 371.992 409.117 372.056C408.462 372.659 407.96 373.408 407.65 374.242C407.341 375.076 407.233 375.972 407.335 376.856C407.358 377.034 407.31 377.215 407.2 377.357C407.091 377.5 406.929 377.593 406.751 377.617C406.662 377.631 406.571 377.626 406.485 377.603C406.398 377.581 406.317 377.541 406.245 377.487C406.174 377.432 406.115 377.364 406.071 377.286C406.027 377.208 405.999 377.122 405.989 377.032C405.857 375.931 405.989 374.814 406.375 373.773C406.76 372.733 407.388 371.799 408.206 371.049C408.269 370.986 408.344 370.935 408.427 370.901C408.51 370.866 408.598 370.848 408.688 370.848C408.778 370.848 408.867 370.866 408.95 370.901C409.033 370.935 409.108 370.986 409.171 371.049C409.29 371.19 409.353 371.369 409.348 371.552Z" fill="#37474F"/>
<path d="M322.007 296.641C320.988 311.082 324.849 327.916 326.087 332.893L323.952 338.006C323.422 351.128 342.758 358.294 351.624 353.181C365.521 330.962 372.565 318.914 369.832 304.936L322.007 296.641Z" fill="#263238"/>
<path opacity="0.3" d="M327.244 330.663L335.797 313.639C328.644 311.504 323.191 302.978 323.191 302.978C324.293 310.225 331.201 314.822 331.201 314.822C328.165 319.519 326.773 325.09 327.244 330.663Z" fill="black"/>
<path d="M351.925 348.341C350.103 340.182 337.715 331.302 327.149 334.144L317.277 355.969C315.616 359.646 314.613 363.586 314.313 367.609L310.383 420.301C310.114 423.988 309.449 427.636 308.398 431.18L308.275 431.588L322.009 435.259C322.063 429.172 323.205 423.144 325.382 417.459L335.879 390.073C337.912 384.74 338.838 379.049 338.599 373.347L338.436 369.037L351.925 348.341Z" fill="#FFA8A7"/>
<path d="M300.552 458.376C304.487 458.252 308.219 456.598 310.954 453.766C312.953 451.672 314.286 449.034 316.394 447.062C318.855 444.751 321.574 443.799 324.348 441.841C324.819 441.495 325.182 441.024 325.395 440.481C325.416 440.282 325.416 440.081 325.395 439.883C325.343 439.19 325.153 438.516 324.838 437.897C324.708 438.691 324.267 439.4 323.614 439.869C320.894 441.841 317.645 443.228 315.238 445.539C313.171 447.511 311.865 450.163 309.921 452.243C307.275 455.066 303.617 456.724 299.75 456.853C295.942 456.962 289.333 455.575 289.333 452.773C289.12 453.653 289.262 454.581 289.728 455.357C292.094 457.723 297.696 458.376 300.552 458.376Z" fill="#EBEBEB"/>
<path d="M324.347 441.786C321.628 443.744 318.908 444.696 316.392 447.008C314.285 448.98 312.952 451.618 310.953 453.712C308.218 456.544 304.486 458.198 300.551 458.322C297.695 458.403 292.134 457.723 289.754 455.398C291.535 458.362 297.845 459.178 300.904 459.083C304.77 458.96 308.428 457.306 311.076 454.487C313.02 452.393 314.326 449.755 316.392 447.769C318.799 445.471 321.451 444.519 324.171 442.548C324.508 442.305 324.791 441.995 325.002 441.636C325.212 441.278 325.346 440.88 325.394 440.467C325.174 440.996 324.812 441.452 324.347 441.786Z" fill="#455A64"/>
<path d="M323.694 432.39C323.395 431.721 323.286 430.982 323.381 430.255C323.381 430.255 323.585 428.093 323.721 427.399C323.98 426.04 322.932 425.972 322.932 425.972C322.932 425.972 322.728 427.046 322.552 428.311C322.259 428.497 322.007 428.74 321.809 429.025C321.61 429.31 321.47 429.631 321.396 429.969C321.262 430.651 321.057 431.316 320.784 431.955C320.641 432.272 320.407 432.54 320.112 432.724C319.816 432.908 319.473 433 319.125 432.988C318.377 432.879 317.915 432.118 317.289 431.628C316.915 431.401 316.49 431.272 316.052 431.253C315.615 431.234 315.18 431.325 314.787 431.52C314.979 431.086 315.012 430.599 314.881 430.144C314.749 429.689 314.46 429.295 314.067 429.031C313.246 428.514 312.313 428.202 311.347 428.12C310.699 427.987 310.036 427.941 309.375 427.984C309.046 428.006 308.725 428.095 308.432 428.248C308.14 428.4 307.882 428.611 307.675 428.868C307.47 429.127 307.359 429.448 307.359 429.779C307.359 430.11 307.47 430.431 307.675 430.69C304.833 432.431 303.759 440.386 298.415 444.37C293.071 448.354 289.277 449.238 289.277 452.76C289.277 455.479 295.886 456.839 299.693 456.839C303.561 456.711 307.219 455.053 309.865 452.229C311.809 450.149 313.115 447.497 315.182 445.526C317.588 443.214 320.838 441.827 323.558 439.855C323.976 439.54 324.311 439.127 324.533 438.654C324.756 438.18 324.86 437.659 324.836 437.136C324.742 435.498 324.355 433.891 323.694 432.39Z" fill="#89C5CC"/>
<path d="M290.27 451.726L292.731 452.624C292.896 452.682 293.041 452.786 293.149 452.923C293.258 453.06 293.325 453.225 293.343 453.399C293.656 456.118 294.064 456.975 295.315 458.145C293.793 457.982 292.323 457.495 291.004 456.717C290.21 456.257 289.624 455.507 289.37 454.625C289.117 453.743 289.215 452.796 289.645 451.985C289.7 451.874 289.794 451.786 289.909 451.739C290.024 451.691 290.152 451.687 290.27 451.726Z" fill="#455A64"/>
<path d="M313.185 434.525C313.086 434.525 312.988 434.503 312.899 434.461C312.809 434.418 312.73 434.357 312.668 434.28C311.885 433.382 310.83 432.766 309.663 432.526C308.491 432.293 307.274 432.461 306.209 433.002C306.047 433.083 305.859 433.096 305.687 433.039C305.514 432.982 305.372 432.858 305.291 432.696C305.21 432.534 305.196 432.346 305.254 432.174C305.311 432.001 305.435 431.859 305.597 431.778C306.941 431.092 308.477 430.879 309.957 431.172C311.437 431.466 312.775 432.249 313.756 433.396C313.872 433.532 313.93 433.708 313.917 433.886C313.904 434.064 313.822 434.23 313.688 434.348C313.62 434.41 313.541 434.457 313.454 434.488C313.368 434.518 313.276 434.531 313.185 434.525Z" fill="#37474F"/>
<path d="M311.254 438.686C311.07 438.686 310.894 438.612 310.764 438.482C309.914 437.623 308.856 436.998 307.694 436.667C306.532 436.336 305.304 436.31 304.128 436.592C304.041 436.614 303.95 436.619 303.86 436.605C303.771 436.592 303.685 436.561 303.608 436.514C303.531 436.468 303.464 436.406 303.411 436.333C303.358 436.26 303.32 436.177 303.299 436.089C303.277 436.003 303.272 435.914 303.284 435.826C303.297 435.738 303.327 435.654 303.372 435.578C303.418 435.502 303.478 435.436 303.55 435.384C303.621 435.331 303.702 435.294 303.788 435.273C305.197 434.936 306.668 434.966 308.061 435.361C309.454 435.757 310.722 436.503 311.743 437.53C311.837 437.626 311.901 437.748 311.926 437.879C311.951 438.011 311.936 438.148 311.884 438.271C311.831 438.395 311.744 438.5 311.632 438.574C311.519 438.648 311.388 438.687 311.254 438.686Z" fill="#37474F"/>
<path d="M308.287 442.317C308.183 442.315 308.081 442.292 307.987 442.247C307.893 442.202 307.81 442.138 307.743 442.058C307.115 441.287 306.297 440.693 305.369 440.336C304.442 439.978 303.437 439.869 302.454 440.019C302.273 440.047 302.089 440.003 301.941 439.896C301.793 439.789 301.694 439.628 301.665 439.447C301.636 439.267 301.68 439.083 301.787 438.935C301.894 438.787 302.056 438.688 302.236 438.659C303.458 438.466 304.71 438.599 305.865 439.043C307.02 439.486 308.038 440.226 308.817 441.188C308.901 441.288 308.953 441.409 308.97 441.538C308.986 441.667 308.965 441.798 308.909 441.915C308.853 442.032 308.765 442.131 308.655 442.2C308.545 442.269 308.417 442.305 308.287 442.303V442.317Z" fill="#37474F"/>
<path d="M305.324 445.403C305.228 445.404 305.134 445.384 305.047 445.344C304.96 445.304 304.883 445.245 304.821 445.172C304.214 444.52 303.462 444.02 302.625 443.713C301.789 443.406 300.892 443.3 300.007 443.404C299.828 443.42 299.649 443.367 299.508 443.256C299.366 443.145 299.273 442.984 299.246 442.806C299.234 442.717 299.241 442.626 299.265 442.539C299.289 442.452 299.33 442.371 299.386 442.3C299.441 442.229 299.51 442.17 299.589 442.126C299.668 442.082 299.754 442.055 299.844 442.045C300.946 441.914 302.062 442.047 303.103 442.432C304.143 442.817 305.077 443.444 305.827 444.261C305.912 444.36 305.966 444.481 305.985 444.61C306.004 444.739 305.986 444.871 305.933 444.99C305.881 445.109 305.796 445.211 305.688 445.284C305.58 445.357 305.454 445.399 305.324 445.403Z" fill="#37474F"/>
<path d="M358.043 230.106C350.6 229.521 343.125 229.467 335.674 229.943C332.329 229.992 329.037 230.782 326.033 232.254C324.12 233.475 322.47 235.066 321.181 236.935C319.891 238.803 318.989 240.91 318.527 243.133C317.641 247.575 317.357 252.117 317.684 256.636C318.078 271.403 319.18 284.008 320.771 298.694C335.443 307.166 354.766 311.177 371.084 306.527C371.315 287.489 370.376 267.351 366.542 248.694C365.182 241.95 363.21 234.661 358.043 230.106Z" fill="#455A64"/>
<path opacity="0.3" d="M358.043 230.106C350.6 229.521 343.125 229.467 335.674 229.943C332.329 229.992 329.037 230.782 326.033 232.254C324.12 233.475 322.47 235.066 321.181 236.935C319.891 238.803 318.989 240.91 318.527 243.133C317.641 247.575 317.357 252.117 317.684 256.636C318.078 271.403 319.18 284.008 320.771 298.694C335.443 307.166 354.766 311.177 371.084 306.527C371.315 287.489 370.376 267.351 366.542 248.694C365.182 241.95 363.21 234.661 358.043 230.106Z" fill="white"/>
<path d="M402.385 268.003C402.571 265.992 402.256 263.966 401.468 262.105C400.68 260.245 399.444 258.609 397.87 257.343L370.81 235.491C367.145 232.521 362.722 230.637 358.042 230.051L355.39 229.847C352.97 232.091 351.909 248.069 362.815 254.555L386.339 268.289L386.108 298.517L378.058 307.71C377.912 307.87 377.807 308.062 377.751 308.27C377.694 308.479 377.688 308.698 377.734 308.91C377.779 309.121 377.874 309.318 378.011 309.486C378.147 309.653 378.322 309.785 378.52 309.872C378.983 310.089 379.498 310.17 380.006 310.108C380.513 310.045 380.993 309.841 381.389 309.518L384 307.383C382.382 310.429 380.968 313.897 379.35 316.902C378.946 317.493 378.746 318.2 378.779 318.914C378.833 319.216 378.954 319.502 379.133 319.752C379.312 320.001 379.544 320.207 379.812 320.356C380.342 320.658 380.931 320.844 381.539 320.9C383.665 321.149 385.817 320.766 387.726 319.798C389.63 318.833 391.311 317.48 392.662 315.828C395.247 312.716 396.796 308.875 397.095 304.841C399.526 292.667 401.291 280.369 402.385 268.003Z" fill="#FFA8A7"/>
<path d="M330.806 224.327V226.774C330.744 228.568 330.414 230.341 329.827 232.037C329.581 232.751 329.581 233.526 329.827 234.24C330.079 234.839 330.462 235.375 330.95 235.806C331.437 236.236 332.015 236.552 332.642 236.728C333.884 237.061 335.187 237.103 336.449 236.851C340.222 236.207 343.649 234.258 346.131 231.343L345.573 214.604L330.806 224.327Z" fill="#FFA8A7"/>
<path opacity="0.2" d="M342.611 221.879C343.808 219.786 344.576 217.474 344.868 215.08L330.807 224.313V226.761C330.794 227.476 330.726 228.19 330.604 228.896C332.586 228.552 334.518 227.962 336.355 227.141C338.909 226.035 341.084 224.206 342.611 221.879Z" fill="black"/>
<path d="M315.209 197.171C313.603 197.223 312.013 196.834 310.613 196.045C309.213 195.256 308.056 194.098 307.268 192.698C307.156 192.492 307.108 192.258 307.127 192.025C307.147 191.792 307.235 191.57 307.38 191.387C307.524 191.203 307.719 191.066 307.941 190.992C308.163 190.918 308.402 190.91 308.628 190.971C309.739 191.168 310.875 191.168 311.986 190.971C310.705 189.303 309.768 187.397 309.231 185.363C308.695 183.33 308.568 181.21 308.859 179.127C308.895 178.895 308.984 178.675 309.121 178.485C309.257 178.294 309.437 178.138 309.645 178.03C309.852 177.921 310.083 177.863 310.317 177.86C310.551 177.857 310.783 177.909 310.994 178.012C315.604 180.298 320.734 181.334 325.87 181.017C328.59 180.827 331.309 180.242 334.029 180.038C336.765 179.699 339.541 180.122 342.052 181.262C343.313 181.841 344.393 182.754 345.174 183.902C345.955 185.05 346.408 186.389 346.485 187.775C346.797 187.331 347.202 186.96 347.671 186.688C348.141 186.416 348.664 186.248 349.204 186.198C349.768 186.129 350.341 186.178 350.885 186.339C351.43 186.5 351.936 186.772 352.373 187.136L347.668 189.747C348.55 189.571 349.466 189.691 350.272 190.09C351.079 190.488 351.731 191.142 352.128 191.95C352.819 193.532 353.118 195.258 352.998 196.981C353.087 199.252 352.987 201.526 352.699 203.78C352.39 206.059 351.495 208.219 350.102 210.049C348.876 211.544 347.241 212.65 345.397 213.231C342.884 213.932 340.217 213.847 337.755 212.986C335.31 212.133 332.984 210.972 330.833 209.532C325.257 205.899 320.027 201.762 315.209 197.171Z" fill="#263238"/>
<path d="M314.909 192.616C313.334 202.081 314.378 211.796 317.928 220.71C318.575 222.847 319.92 224.705 321.749 225.986C323.762 227.141 326.264 226.897 328.548 226.557C332.274 226.136 335.907 225.112 339.304 223.524C342.729 221.911 345.399 219.036 346.756 215.502C347.972 215.75 349.235 215.64 350.391 215.187C351.546 214.733 352.546 213.954 353.269 212.945C354.704 210.85 355.446 208.358 355.391 205.82C355.391 204.215 355.091 202.311 353.65 201.604C352.942 201.388 352.187 201.368 351.469 201.548C350.75 201.728 350.094 202.1 349.571 202.624C347.635 204.181 346.213 206.285 345.491 208.662C344.431 204.732 342.772 200.938 341.711 197.022C341.472 195.429 340.66 193.978 339.426 192.942C337.781 191.882 335.633 192.494 333.729 192.942C327.53 194.44 321.052 194.328 314.909 192.616Z" fill="#FFA8A7"/>
<path d="M326.346 204.528L321.764 212.265L327.23 213.285L326.346 204.528Z" fill="#F28F8F"/>
<path d="M332.507 215.95L328.346 217.976C328.702 218.449 329.203 218.792 329.773 218.954C330.342 219.116 330.949 219.088 331.5 218.874C331.981 218.579 332.344 218.126 332.527 217.592C332.711 217.059 332.704 216.479 332.507 215.95Z" fill="#F28F8F"/>
<path opacity="0.3" d="M332.507 215.95L328.346 217.976C328.702 218.449 329.203 218.792 329.773 218.954C330.342 219.116 330.949 219.088 331.5 218.874C331.981 218.579 332.344 218.126 332.527 217.592C332.711 217.059 332.704 216.479 332.507 215.95Z" fill="black"/>
<path d="M330.059 219.051C330.542 219.145 331.043 219.098 331.5 218.915C331.881 218.7 332.19 218.378 332.389 217.989C332.587 217.599 332.666 217.159 332.615 216.725C332.021 216.719 331.444 216.921 330.983 217.296C330.721 217.513 330.504 217.78 330.345 218.081C330.186 218.382 330.089 218.711 330.059 219.051Z" fill="#F28F8F"/>
<path d="M334.246 204.841C334.288 205.152 334.236 205.47 334.096 205.751C333.957 206.033 333.736 206.267 333.462 206.422C333.189 206.578 332.875 206.648 332.562 206.624C332.248 206.6 331.949 206.482 331.702 206.287C331.456 206.091 331.274 205.826 331.179 205.526C331.084 205.226 331.081 204.905 331.17 204.603C331.26 204.302 331.437 204.034 331.68 203.834C331.923 203.634 332.22 203.511 332.533 203.481C332.94 203.435 333.349 203.552 333.67 203.807C333.991 204.062 334.198 204.434 334.246 204.841Z" fill="#263238"/>
<path d="M321.096 205.657C321.137 205.871 321.132 206.092 321.082 206.305C321.033 206.518 320.94 206.718 320.809 206.893C320.678 207.068 320.512 207.214 320.321 207.321C320.131 207.428 319.921 207.495 319.703 207.517C319.486 207.539 319.266 207.515 319.058 207.447C318.85 207.38 318.659 207.27 318.496 207.124C318.333 206.979 318.202 206.801 318.111 206.602C318.02 206.403 317.972 206.188 317.969 205.969C317.963 205.574 318.106 205.192 318.369 204.897C318.632 204.602 318.996 204.417 319.389 204.378C319.782 204.339 320.176 204.448 320.492 204.685C320.808 204.922 321.024 205.268 321.096 205.657Z" fill="#263238"/>
<path d="M318.948 199.592L315.711 202.311C315.519 201.895 315.457 201.431 315.535 200.979C315.612 200.527 315.826 200.11 316.147 199.782C316.548 199.49 317.024 199.317 317.52 199.283C318.015 199.25 318.51 199.357 318.948 199.592Z" fill="#263238"/>
<path d="M332.316 198.042L336.029 200.095C336.137 199.651 336.106 199.185 335.941 198.76C335.775 198.334 335.483 197.97 335.104 197.715C334.654 197.511 334.156 197.434 333.665 197.491C333.174 197.549 332.707 197.739 332.316 198.042Z" fill="#263238"/>
<path d="M333.35 289.869C333.35 289.488 333.35 289.121 333.254 288.754C332.797 285.618 331.444 282.68 329.358 280.294C327.271 277.908 324.54 276.176 321.492 275.306L301.258 263.067L287.66 256.268L282.058 260.688C280.797 261.668 279.851 262.996 279.338 264.509C278.679 266.527 278.833 268.723 279.768 270.63C280.702 272.537 282.343 274.005 284.342 274.721L316.978 286.225C319.112 288.456 320.466 291.318 320.839 294.384C320.926 295.283 321.103 296.172 321.37 297.035C321.827 298.061 322.604 298.91 323.585 299.457C324.565 300.003 325.696 300.218 326.809 300.068C327.91 299.899 328.957 299.476 329.866 298.832C330.775 298.187 331.521 297.339 332.044 296.355C333.094 294.364 333.547 292.112 333.35 289.869Z" fill="#FFA8A7"/>
<path d="M322.444 275.306V273.334H321.003V274.055L317.93 272.26C317.61 272.073 317.246 271.975 316.876 271.975C316.506 271.975 316.142 272.073 315.822 272.26L310.696 275.224V274.367L309.336 274.49V276.434C309.337 276.556 309.37 276.676 309.432 276.781C309.494 276.886 309.583 276.973 309.689 277.033L313.905 279.48C314.227 279.661 314.59 279.756 314.959 279.756C315.328 279.756 315.691 279.661 316.013 279.48L322.2 275.904C322.301 275.847 322.386 275.764 322.446 275.664C322.506 275.563 322.538 275.449 322.54 275.333L322.444 275.306Z" fill="#89C5CC"/>
<path d="M315.765 270.641L310.53 273.674C310.436 273.723 310.357 273.798 310.303 273.889C310.248 273.98 310.219 274.084 310.219 274.19C310.219 274.297 310.248 274.401 310.303 274.492C310.357 274.583 310.436 274.657 310.53 274.707L314.12 276.774C314.392 276.934 314.702 277.019 315.017 277.019C315.333 277.019 315.643 276.934 315.915 276.774L321.163 273.742C321.254 273.689 321.329 273.614 321.381 273.523C321.433 273.432 321.46 273.33 321.46 273.225C321.46 273.12 321.433 273.018 321.381 272.927C321.329 272.836 321.254 272.761 321.163 272.708L317.56 270.641C317.288 270.481 316.978 270.397 316.663 270.397C316.347 270.397 316.037 270.481 315.765 270.641Z" fill="#89C5CC"/>
<path opacity="0.3" d="M322.444 275.306V273.334H321.003V274.055L317.93 272.26C317.61 272.073 317.246 271.975 316.876 271.975C316.506 271.975 316.142 272.073 315.822 272.26L310.696 275.224V274.367L309.336 274.49V276.434C309.337 276.556 309.37 276.676 309.432 276.781C309.494 276.886 309.583 276.973 309.689 277.033L313.905 279.48C314.227 279.661 314.59 279.756 314.959 279.756C315.328 279.756 315.691 279.661 316.013 279.48L322.2 275.904C322.301 275.847 322.386 275.764 322.446 275.664C322.506 275.563 322.538 275.449 322.54 275.333L322.444 275.306Z" fill="black"/>
<path d="M315.755 270.315L309.595 273.878C309.487 273.938 309.398 274.026 309.335 274.132C309.273 274.239 309.24 274.36 309.24 274.483C309.24 274.606 309.273 274.727 309.335 274.834C309.398 274.94 309.487 275.028 309.595 275.088L313.851 277.522C314.173 277.703 314.536 277.798 314.905 277.798C315.274 277.798 315.637 277.703 315.959 277.522L322.146 273.946C322.25 273.883 322.336 273.794 322.396 273.688C322.456 273.582 322.487 273.462 322.487 273.341C322.487 273.219 322.456 273.099 322.396 272.993C322.336 272.887 322.25 272.799 322.146 272.736L317.931 270.315C317.603 270.116 317.226 270.01 316.843 270.01C316.459 270.01 316.083 270.116 315.755 270.315Z" fill="#89C5CC"/>
<path opacity="0.5" d="M315.765 270.641L310.53 273.674C310.436 273.723 310.357 273.798 310.303 273.889C310.248 273.98 310.219 274.084 310.219 274.19C310.219 274.297 310.248 274.401 310.303 274.492C310.357 274.583 310.436 274.657 310.53 274.707L314.12 276.774C314.392 276.934 314.702 277.019 315.017 277.019C315.333 277.019 315.643 276.934 315.915 276.774L321.163 273.742C321.254 273.689 321.329 273.614 321.381 273.523C321.433 273.432 321.46 273.33 321.46 273.225C321.46 273.12 321.433 273.018 321.381 272.927C321.329 272.836 321.254 272.761 321.163 272.708L317.56 270.641C317.288 270.481 316.978 270.397 316.663 270.397C316.347 270.397 316.037 270.481 315.765 270.641Z" fill="white"/>
<path d="M313.441 284.947C312.612 284.172 312.163 279.943 313.808 278.569L309.593 276.135C308.233 277.862 308.573 281.574 309.335 283.451C309.424 283.666 309.559 283.858 309.731 284.016C309.902 284.173 310.106 284.291 310.327 284.362C311.143 284.634 312.517 285.11 313.047 285.287C313.209 285.345 313.382 285.367 313.554 285.35C313.725 285.334 313.891 285.279 314.04 285.191L313.441 284.947Z" fill="#455A64"/>
</svg>
