<svg width="24" height="25" viewBox="0 0 24 25" fill="none" xmlns="http://www.w3.org/2000/svg">
<path d="M12 2.7981C6.489 2.7981 2 7.16049 2 12.5161C2 17.8716 6.489 22.234 12 22.234C17.511 22.234 22 17.8716 22 12.5161C22 7.16049 17.511 2.7981 12 2.7981ZM12 4.74169C16.4301 4.74169 20 8.21088 20 12.5161C20 16.8212 16.4301 20.2904 12 20.2904C7.56988 20.2904 4 16.8212 4 12.5161C4 8.21088 7.56988 4.74169 12 4.74169ZM11 7.65708V11.5443H7V13.4879H11V17.375H13V13.4879H17V11.5443H13V7.65708H11Z" fill="#89C5CC"/>
</svg>
